<?xml version="1.0" encoding="UTF-8"?>
<svg id="Layer_1" xmlns="http://www.w3.org/2000/svg" version="1.1" viewBox="0 0 364.2 141.3">
  <!-- Generator: Adobe Illustrator 29.5.1, SVG Export Plug-In . SVG Version: 2.1.0 Build 141)  -->
  <defs>
    <style>
      .st0 {
        fill: #08260a;
      }

      .st1 {
        fill: #fbcd5b;
      }

      .st2 {
        fill: #fff;
      }

      .st3 {
        stroke: #fbcd5b;
        stroke-miterlimit: 10;
        stroke-width: 10px;
      }

      .st3, .st4 {
        fill: #4ea556;
      }
    </style>
  </defs>
  <path class="st3" d="M132.9,70.3c-3.4-3.6-9.7-6.6-15.5-7.8,2.9-1.1,5.6-2.8,7.9-5.1,11.3-11.1,6.5-29.1-4.9-38.3-11.9-9.8-35.9-6.2-47.7,3.4-4.8.2-9.9,1.2-14.9,2.8-7.4,2.2-14.2,4.7-20.2,6.9-9.2,3.4-19.3,7.5-23.3,17.1-5.1,12.4,1.8,24.4,9.1,35.1,6,8.3,11.8,15.5,19.8,18.5,3.1.9,5.7,1,8,.4.8.4,1.8.9,2.9,1.5-1.1-.4-2.2-.7-3.2-1.1,23.5,17.7,71.5,31.2,85.4-5,3.7-9.4,4.1-20.7-3.3-28.4Z"/>
  <path class="st1" d="M90.6,17.4l-44.7,13.3,5.6,70.2s55.8,31.1,73.1,9.8c17.3-21.3,22.4-47.2-14.1-49.6,0,0,6.7,4.2,14.7-4.4,8-8.7-9.3-45.3-34.6-39.3Z"/>
  <path class="st0" d="M74.8,22.1c11.5-10.1,36.3-14.1,48.5-4,11.4,9.2,16.2,27.1,4.9,38.3-2.9,2.8-6.4,4.8-10.2,5.8,6.7-12.6,7.1-21-2.7-31.6-8.9-9.1-28.1-7.2-40.4-8.5h0Z"/>
  <path class="st0" d="M105.1,48c-.9-25.6-23.2-30.8-44.5-23.7-7.4,2.2-14.2,4.7-20.2,6.9-9.2,3.4-19.3,7.5-23.3,17.1-5.1,12.4,1.8,24.4,9.1,35.1,6,8.3,11.8,15.5,19.8,18.5,22.9,6.9,20.3-33.2,21.3-46.9,1.1-19.6,3.3.4,4.3,6.4,2,12.1,9.4,10.6,18.1,6.7,9-3.8,15.8-9.5,15.4-19.9v-.2Z"/>
  <path class="st0" d="M135.8,69.3c-5.7-5.9-19.2-10.4-25.4-7.5,16.5,1.3,31.6,14.2,23.8,31.5-3.2,6.1-9.5-.9-7.3-6.2,3.3-4.1,10.9-10.2,2.9-14.5-5.3-1.2-21.7-2.8-17.4,7.3,2.2,4,14,7.7,6.5,13.9-9.1,7.5-26,4.7-33.6-3.9,5.3,13.6,26.7,18.2,37.8,7.7.2.9,4.1,4,7.3,3.4-14.5,22.7-56.2,8.8-76.7,1.7,23.5,17.7,71.5,31.2,85.4-5,3.7-9.4,4.1-20.7-3.3-28.4Z"/>
  <ellipse class="st2" cx="88.3" cy="49.8" rx="7.9" ry="11.4"/>
  <ellipse class="st0" cx="88.3" cy="52" rx="7.8" ry="7.1"/>
  <circle class="st2" cx="90.3" cy="49.6" r="1.5"/>
  <path class="st1" d="M159.2,18.2c6.9-2,14.8-2.9,24.5-2.9s25.1,4.4,25.1,15.4-5.8,16.1-13.5,21.3c9.7,1.1,17.1,6.9,17.1,18.6s-12.6,27.8-29.6,27.8-10-.5-14.5-1.6c-3.2-.9-5.1-2.6-5.7-10-1.2-15.6-1.7-27.6-1.7-40.8v-7.4c-1,.3-1.8.5-2.5.5-1.7,0-2.6-1-3.1-3.7-.4-2.5-.6-5.4-.6-8.2s0-2.3,0-3.4c.3-4.4,1.8-4.9,4.4-5.6ZM176.9,49.5c8.2-3.2,14.1-8.7,16-13.6-1.9-1.1-4.9-1.7-8.6-1.7s-4.8.2-7.6.6c0,5.1,0,9.9.2,14.7ZM184.7,64.1c-2.5,0-5,.2-7.3.7l.6,13.8c2.1.5,4.1.6,5.9.6,7.2,0,11.6-3.2,11.6-9.3s-5.1-5.8-10.8-5.8Z"/>
  <path class="st1" d="M243,92.8c-3.9,3.9-8.3,6.2-13.3,6.2-11.2,0-18.1-10.1-18.1-23.9,0-19.5,12.5-34.8,25-34.8s5.3.7,7.7,2.1c.2-2.9.9-3.7,2.5-3.7s5.7.7,8.5,1.7c2.9,1,4.1,2.1,4.1,7.5,0,13.6-.5,29.8-1.8,43.8-.4,4.5-1.4,6.1-4.5,6.6-1.1.2-2.4.2-3.7.2s-2.1,0-2.9-.1c-3.2-.6-3.5-2.2-3.5-5.5ZM244.3,58.3c-1.7-.9-3.5-1.6-5.8-1.6-7.1,0-11.1,9.2-11.1,15.3s2.7,9.4,7.6,9.4,5.9-1.6,8.6-5.1c.3-5.9.5-12.1.6-18.1Z"/>
  <path class="st1" d="M265.5,16.5c2.7-.9,6.7-1.4,9.1-1.4s2.5.9,2.5,4.5,0,7.2,0,11.2c0,21.2-.6,46.9-1.5,60.4-.3,4.1-.4,6.2-4.1,6.7-.7.1-1.4.1-2.1.1s-1.8,0-2.7-.1c-3.6-.2-4.3-2.1-4.6-5.8-.4-6.8-.7-17.4-.7-29.1s.4-27.3,1.3-39.7c.4-5.2.9-6.2,2.6-6.8Z"/>
  <path class="st1" d="M184.7,64.1c-2.5,0-5,.2-7.3.7l.6,13.8c2.1.5,4.1.6,5.9.6,7.2,0,11.6-3.2,11.6-9.3s-5.1-5.8-10.8-5.8ZM183.9,77.1c-1.4,0-2.7,0-4-.3l-.5-10.4c1.7-.2,3.4-.4,5.2-.4s8.8.3,8.8,3.8c0,6-5.2,7.3-9.6,7.3Z"/>
  <path class="st1" d="M192.8,35.9c-1.9-1.1-4.9-1.7-8.6-1.7s-4.8.2-7.6.6c0,5.1,0,9.9.2,14.7,8.2-3.2,14.1-8.7,16-13.6ZM178.8,46.4c0-3.2-.1-6.5-.1-9.9,2.2-.2,4-.4,5.5-.4,2.3,0,4.3.2,5.9.7-1.9,3.2-5.8,6.8-11.3,9.5Z"/>
  <path class="st1" d="M227.4,72c0,5.8,2.7,9.4,7.6,9.4s5.9-1.6,8.6-5.1c.3-5.9.5-12.1.6-18.1-1.7-.9-3.5-1.6-5.8-1.6-7.1,0-11.1,9.2-11.1,15.3ZM241.7,75.6c-2.1,2.5-4.4,3.8-6.6,3.8-4.9,0-5.6-4.7-5.6-7.4,0-5.4,3.5-13.3,9.1-13.3s2.5.3,3.8.8c0,5.3-.3,10.8-.6,16.1Z"/>
  <path class="st1" d="M339.7,46.1c0-.6,0-1,0-1.3,0-3.5-1.8-4.6-3.6-5.5h0s0,0,0,0c-2.2-.8-5.1-1.4-7.4-1.4-7.2,0-14.7,3.9-19.9,10.9-.3-2.1-1.3-4.4-4.7-5-1.5-.3-3-.5-4.5-.7,0-2.5.2-5.3.3-7.6.1-2.8.2-4.8.2-5.5,0-4.8-1.9-7.2-5.6-7.2-10.7,0-13.7,2.1-14,9.8v1.2c-.1,2.9-.2,5.4-.2,7.9v1.5c-.4,0-.8.2-1.2.3,0-4.3,0-8.6,0-12.8s0-4,0-5.9c0-1.8,0-3.5,0-5.2s0-6.5-4.5-6.5-6.8.5-9.8,1.5c-3.1,1-3.6,3.5-4,8.5-.5,5.9-.8,12-1,17.9-.9-1.1-2.1-1.9-3.9-2.6-2.8-1-6.8-1.8-9.2-1.8s-3.5,1.3-4,2.8c-2-.8-4.2-1.2-6.2-1.2-10.5,0-20.1,9.2-24.5,21.9-2.4-4.5-6.4-7.7-11.9-9.3,7.1-5.8,10.7-12.6,10.7-20.2,0-12.8-14.6-17.4-27.1-17.4s-17.9.9-25,3c-3.1.8-5.5,1.9-5.8,7.4,0,1.2,0,2.4,0,3.6,0,3.1.2,6.1.6,8.5.6,3.5,2.3,5.3,5,5.3s.4,0,.5,0v4.9c0,14,.5,25.8,1.7,41,.6,7.4,2.5,10.5,7.2,11.8,4.1,1.1,9.7,1.7,15,1.7,8.7,0,16.7-3.1,22.6-8.7,2.2-2.1,4-4.4,5.4-6.9,2.7,10,9.6,16.2,18.9,16.2s8.1-1.4,11.8-4.2c.6,1.6,1.8,3,4.7,3.5h0s0,0,0,0c.9.1,2.1.1,3.2.1s2.8,0,4-.3c5-.8,5.7-4.5,6.1-8.3.1-1.6.3-3.2.4-4.8,0,1.8.2,3.5.3,5,.3,3.5,1,7.2,6.4,7.6,1,.1,1.9.1,2.9.1s1.5,0,2.4-.1c5.3-.7,5.6-4.4,5.8-8.4h0c.5-7.2.8-17.5,1.1-29,.5.1,1,.3,1.5.3h.7c.5,9.2,1.2,19.9,2.4,31.1.3,3,1.2,6.5,5.6,6.5s4.8-.3,7.1-.7c4.2-.8,4.8-3.9,4.8-6.4s-.2-6.4-.4-12.6c-.2-5.6-.5-12-.6-16.9.9,0,1.9-.2,2.7-.3-.4,2.4-.7,5-.7,7.7,0,19.1,10.1,30.5,27,30.5s12.7-2.8,17.3-7.7c3.7-3.8,8-10.7,8-21.7s-5.4-22.4-14.5-26.1ZM209.5,75.1c0,2.3.2,4.5.5,6.6-4.4,9.9-14.6,16.7-27.3,16.7s-10-.5-14.5-1.6c-3.2-.9-5.1-2.6-5.7-10-1.2-15.6-1.7-27.6-1.7-40.8v-7.4c-1,.3-1.8.5-2.5.5-1.7,0-2.6-1-3.1-3.7-.4-2.5-.6-5.4-.6-8.2s0-2.3,0-3.4c.3-4.4,1.8-4.9,4.4-5.6,6.9-2,14.8-2.9,24.5-2.9s25.1,4.4,25.1,15.4-5.8,16.1-13.5,21.3c7.3.9,13.3,4.4,15.9,11.1-1,3.8-1.6,7.9-1.6,12ZM211.5,75.1c0-2.6.2-5.2.7-7.6.1,1,.2,2,.2,3.1,0,2.3-.3,4.5-.8,6.6,0-.7,0-1.4,0-2.1ZM257.6,91.7c-.4,4.5-1.4,6.1-4.5,6.6-1.1.2-2.4.2-3.7.2s-2.1,0-2.9-.1c-3.2-.6-3.5-2.2-3.5-5.5-3.9,3.9-8.3,6.2-13.3,6.2-9.3,0-15.6-6.9-17.5-17.1,1.5-3.5,2.3-7.4,2.3-11.3s-.4-5.4-1.2-7.7c3.8-13.4,13.6-22.7,23.3-22.7s5.3.7,7.7,2.1c.2-2.9.9-3.7,2.5-3.7s5.7.7,8.5,1.7c2.9,1,4.1,2.1,4.1,7.5,0,13.6-.5,29.8-1.8,43.8ZM277,56.2s0,0,0,0c0,0,0,0,0,0h0ZM277.1,47.9s0,0,0,0c0,0,0,0,0,0h0ZM277.2,44.4c-1.8,1.2-2.4,3.3-2.4,7s.1,3.6.2,4.8c.2,2.4.8,4,1.9,5.1-.3,11.7-.7,22.5-1.1,29.8-.3,4.1-.4,6.2-4.1,6.7-.7.1-1.4.1-2.1.1s-1.8,0-2.7-.1c-3.6-.2-4.3-2.1-4.6-5.8-.4-6.8-.7-17.4-.7-29.1s.4-27.3,1.3-39.7c.4-5.2.9-6.2,2.6-6.8,2.7-.9,6.7-1.4,9.1-1.4s2.5.9,2.5,4.5,0,7.2,0,11.2,0,9,0,13.7ZM297.8,64.8c0,1.1,0,2.2.1,3.3,0-1.2,0-2.3-.1-3.3ZM298.5,83.4c0,1.1,0,2.1.1,3.1,0-1,0-2-.1-3.1ZM327.9,82.4c-5.1,0-9.5-3.9-9.5-10.7s4.5-14,10.4-14.8c0,4.6,1,5.2,3.7,6.3,3.2,1.3,5.4,4.1,5.4,8.5,0,6.8-5.3,10.7-10.1,10.7Z"/>
  <path class="st1" d="M332.6,63.1c-2.7-1.1-3.6-1.7-3.7-6.3-6,.8-10.4,6.7-10.4,14.8s4.4,10.7,9.5,10.7,10.1-3.9,10.1-10.7-2.2-7.2-5.4-8.5ZM327.9,80.4c-3.7,0-7.5-2.7-7.5-8.7s2.6-10.6,6.6-12.3c.4,3.2,1.8,4.4,4.7,5.6h0s0,0,0,0c2.7,1.1,4.2,3.4,4.2,6.6,0,5.4-4.1,8.7-8.1,8.7Z"/>
  <g>
    <path class="st4" d="M161.7,16.1c6.9-2,14.8-2.9,24.5-2.9s25.1,4.4,25.1,15.4-5.8,16.1-13.5,21.3c9.7,1.1,17.1,6.9,17.1,18.6s-12.6,27.8-29.6,27.8-10-.5-14.5-1.6c-3.2-.9-5.1-2.6-5.7-10-1.2-15.6-1.7-27.6-1.7-40.8v-7.4c-1,.3-1.8.5-2.5.5-1.7,0-2.6-1-3.1-3.7-.4-2.5-.6-5.4-.6-8.2s0-2.3,0-3.4c.3-4.4,1.8-4.9,4.4-5.6ZM179.3,47.4c8.2-3.2,14.1-8.7,16-13.6-1.9-1.1-4.9-1.7-8.6-1.7s-4.8.2-7.6.6c0,5.1,0,9.9.2,14.7ZM187.1,62c-2.5,0-5,.2-7.3.7l.6,13.8c2.1.5,4.1.6,5.9.6,7.2,0,11.6-3.2,11.6-9.3s-5.1-5.8-10.8-5.8Z"/>
    <path class="st4" d="M245.4,90.7c-3.9,3.9-8.3,6.2-13.3,6.2-11.2,0-18.1-10.1-18.1-23.9,0-19.5,12.5-34.8,25-34.8s5.3.7,7.7,2.1c.2-2.9.9-3.7,2.5-3.7s5.7.7,8.5,1.7c2.9,1,4.1,2.1,4.1,7.5,0,13.6-.5,29.8-1.8,43.8-.4,4.5-1.4,6.1-4.5,6.6-1.1.2-2.4.2-3.7.2s-2.1,0-2.9-.1c-3.2-.6-3.5-2.2-3.5-5.5ZM246.8,56.2c-1.7-.9-3.5-1.6-5.8-1.6-7.1,0-11.1,9.2-11.1,15.3s2.7,9.4,7.6,9.4,5.9-1.6,8.6-5.1c.3-5.9.5-12.1.6-18.1Z"/>
    <path class="st4" d="M267.9,14.4c2.7-.9,6.7-1.4,9.1-1.4s2.5.9,2.5,4.5,0,7.2,0,11.2c0,21.2-.6,46.9-1.5,60.4-.3,4.1-.4,6.2-4.1,6.7-.7.1-1.4.1-2.1.1s-1.8,0-2.7-.1c-3.6-.2-4.3-2.1-4.6-5.8-.4-6.8-.7-17.4-.7-29.1s.4-27.3,1.3-39.7c.4-5.2.9-6.2,2.6-6.8Z"/>
    <path class="st4" d="M284.8,42.9v-3.2c0-2.9,0-5.8.2-9.1.3-5.8,1.3-7.9,12-7.9s3.6,1.8,3.6,5.2-.4,9.3-.6,14.8c2,.2,4,.5,6.1.9,2.4.5,3.2,1.8,3.2,4.8s-.2,4.4-.4,6.6c-.4,3-1.5,4-4,4.3-1.6.2-3.8.5-4.7.5.3,10.1,1.1,28.2,1.1,31.4s-.7,4-3.2,4.5c-2.2.5-4.5.7-6.7.7s-3.2-1-3.6-4.7c-1.1-10.8-1.8-21.3-2.5-32.5l-2.3-.3c-2.5-.3-3.4-1.1-3.7-4.6,0-1.6-.2-3.6-.2-4.7,0-5.2,1-6,5.5-6.4Z"/>
    <path class="st4" d="M340.2,42.7c0,.5,0,1-.3,2.6,9.1,2.9,14.7,12.2,14.7,24.7s-12.1,27.4-23.4,27.4-25-10-25-28.5,12.7-31.2,24.9-31.2,4.6.5,6.7,1.3c1.5.7,2.5,1.3,2.5,3.7ZM331.3,54.8c-6,.8-10.4,6.7-10.4,14.8s4.4,10.7,9.5,10.7,10.1-3.9,10.1-10.7-2.2-7.2-5.4-8.5c-2.7-1.1-3.6-1.7-3.7-6.3Z"/>
  </g>
  <g>
    <path class="st4" d="M168.3,117.9c0-2.9,1.6-5,4.5-5s3.8,1.4,4.1,3.6h-2.2c-.1-1.1-.9-1.7-1.9-1.7s-2.2,1.3-2.2,3.2.8,3.2,2.2,3.2,1.8-.8,1.9-2.1h2.2c-.2,2.4-1.7,4-4.1,4s-4.4-2.1-4.4-5.1Z"/>
    <path class="st4" d="M177.9,117.9c0-3,1.8-5.1,4.6-5.1s4.6,2.1,4.6,5.1-1.8,5.1-4.6,5.1-4.6-2.1-4.6-5.1ZM184.8,117.9c0-1.8-.9-3.2-2.3-3.2s-2.3,1.4-2.3,3.2.8,3.2,2.3,3.2,2.3-1.4,2.3-3.2Z"/>
    <path class="st4" d="M189,113.1h2.2v1.4c.5-1,1.6-1.6,2.7-1.6,2,0,3.2,1.3,3.2,3.7v6.2h-2.2v-5.7c0-1.5-.7-2.3-1.8-2.3s-1.9.9-1.9,2.4v5.6h-2.2v-9.6Z"/>
    <path class="st4" d="M198.9,117.9c0-3,1.8-5.1,4.6-5.1s4.6,2.1,4.6,5.1-1.8,5.1-4.6,5.1-4.6-2.1-4.6-5.1ZM205.8,117.9c0-1.8-.9-3.2-2.3-3.2s-2.3,1.4-2.3,3.2.8,3.2,2.3,3.2,2.3-1.4,2.3-3.2Z"/>
    <path class="st4" d="M209.4,117.9c0-2.9,1.6-5,4.5-5s3.8,1.4,4.1,3.6h-2.2c-.1-1.1-.9-1.7-1.9-1.7s-2.2,1.3-2.2,3.2.8,3.2,2.2,3.2,1.8-.8,1.9-2.1h2.2c-.2,2.4-1.7,4-4.1,4s-4.4-2.1-4.4-5.1Z"/>
    <path class="st4" d="M219.1,117.9c0-2.9,1.7-5.1,4.5-5.1s4.4,1.9,4.4,4.9v.7h-6.7c0,1.5.9,2.6,2.4,2.6s1.9-.4,2.1-1.3h2.1c-.4,1.9-2,3.1-4.3,3.1s-4.6-2.2-4.6-5.1ZM223.6,114.7c-1.3,0-2.1.9-2.2,2.2h4.4c0-1.3-.9-2.2-2.2-2.2Z"/>
    <path class="st4" d="M233.7,120.3c0-1.8,1.3-2.6,3.5-3,1.5-.3,2.4-.4,2.4-1.4s-.6-1.2-1.6-1.2-1.8.5-1.8,1.5h-2.2c0-2.1,1.7-3.3,4-3.3s3.7,1.1,3.7,3.1v4.4c0,.4.1.7.6.7s.3,0,.4,0v1.7c-.2,0-.6.2-1,.2-1.1,0-1.7-.6-1.9-1.5-.6,1-1.8,1.6-3.1,1.6s-3-1-3-2.7ZM239.5,119.8v-1.9c-.5.4-.9.6-2,.9-1.1.3-1.6.6-1.6,1.3s.5,1,1.2,1,1.9-.5,2.4-1.3Z"/>
    <path class="st4" d="M249.5,120v-5.1h-1.5v-1.8h1.5v-2.7h2.2v2.7h1.9v1.8h-1.9v4.9c0,1,.4,1.2,1.1,1.2s.8,0,1-.2v1.8c-.3.1-.9.2-1.5.2-2,0-2.9-.9-2.9-2.9Z"/>
    <path class="st4" d="M255.7,119.3v-6.2h2.2v5.7c0,1.5.7,2.3,1.8,2.3s1.9-.9,1.9-2.4v-5.6h2.2v9.6h-2.1v-1.4c-.5,1-1.5,1.6-2.7,1.6-2,0-3.3-1.3-3.3-3.7Z"/>
    <path class="st4" d="M270.7,113.1h2.2v1.4c.6-1,1.5-1.6,2.6-1.6s2.3.5,2.8,1.7c.6-1.1,1.6-1.7,2.9-1.7,2,0,3.2,1.4,3.2,3.4v6.5h-2.2v-5.8c0-1.5-.6-2.2-1.7-2.2s-1.7.7-1.8,2.2v5.8h-2.2v-5.7c0-1.5-.6-2.3-1.7-2.3s-1.8.9-1.8,2.4v5.6h-2.2v-9.6Z"/>
    <path class="st4" d="M286.1,120.3c0-1.8,1.3-2.6,3.5-3,1.5-.3,2.4-.4,2.4-1.4s-.6-1.2-1.6-1.2-1.8.5-1.8,1.5h-2.2c0-2.1,1.7-3.3,4-3.3s3.7,1.1,3.7,3.1v4.4c0,.4.1.7.6.7s.3,0,.4,0v1.7c-.2,0-.6.2-1,.2-1.1,0-1.7-.6-1.9-1.5-.6,1-1.8,1.6-3.1,1.6s-3-1-3-2.7ZM292,119.8v-1.9c-.5.4-.9.6-2,.9-1.1.3-1.6.6-1.6,1.3s.5,1,1.2,1,1.9-.5,2.4-1.3Z"/>
    <path class="st4" d="M296.1,119.5h2.2c0,1.1.8,1.6,1.9,1.6s1.6-.4,1.6-1.1c0-1-1.1-1.1-2.3-1.4-1.7-.4-3.2-1-3.2-2.9s1.7-2.9,3.7-2.9,3.6,1,3.7,3.2h-2.2c0-.9-.7-1.3-1.6-1.3s-1.5.4-1.5,1,.8.9,2.3,1.3c1.7.4,3.2,1,3.2,2.9s-1.8,3.1-3.9,3.1-4-1.3-4-3.4Z"/>
    <path class="st4" d="M305.1,117.9c0-2.9,1.6-5,4.5-5s3.8,1.4,4.1,3.6h-2.2c-.1-1.1-.9-1.7-1.9-1.7s-2.2,1.3-2.2,3.2.8,3.2,2.2,3.2,1.8-.8,1.9-2.1h2.2c-.2,2.4-1.7,4-4.1,4s-4.4-2.1-4.4-5.1Z"/>
    <path class="st4" d="M314.8,117.9c0-3,1.8-5.1,4.6-5.1s4.6,2.1,4.6,5.1-1.8,5.1-4.6,5.1-4.6-2.1-4.6-5.1ZM321.7,117.9c0-1.8-.9-3.2-2.3-3.2s-2.3,1.4-2.3,3.2.8,3.2,2.3,3.2,2.3-1.4,2.3-3.2Z"/>
    <path class="st4" d="M326.5,120v-5.1h-1.5v-1.8h1.5v-2.7h2.2v2.7h1.9v1.8h-1.9v4.9c0,1,.4,1.2,1.1,1.2s.8,0,1-.2v1.8c-.3.1-.9.2-1.5.2-2,0-2.9-.9-2.9-2.9Z"/>
    <path class="st4" d="M332.1,120.3c0-1.8,1.3-2.6,3.5-3,1.5-.3,2.4-.4,2.4-1.4s-.6-1.2-1.6-1.2-1.8.5-1.8,1.5h-2.2c0-2.1,1.7-3.3,4-3.3s3.7,1.1,3.7,3.1v4.4c0,.4.1.7.6.7s.3,0,.4,0v1.7c-.2,0-.6.2-1,.2-1.1,0-1.7-.6-1.9-1.5-.6,1-1.8,1.6-3.1,1.6s-3-1-3-2.7ZM338,119.8v-1.9c-.5.4-.9.6-2,.9-1.1.3-1.6.6-1.6,1.3s.5,1,1.2,1,1.9-.5,2.4-1.3Z"/>
  </g>
</svg>