<?xml version="1.0" encoding="UTF-8"?>
<svg id="Layer_1" xmlns="http://www.w3.org/2000/svg" version="1.1" viewBox="0 0 364.2 141.3">
  <!-- Generator: Adobe Illustrator 29.5.1, SVG Export Plug-In . SVG Version: 2.1.0 Build 141)  -->
  <defs>
    <style>
      .st0 {
        fill: #08260a;
      }

      .st1 {
        fill: #fbcd5b;
      }

      .st2 {
        fill: #fff;
      }

      .st3 {
        fill: #4ea556;
        stroke: #fbcd5b;
        stroke-miterlimit: 10;
        stroke-width: 10px;
      }
    </style>
  </defs>
  <path class="st3" d="M134.5,74.4c-3.4-3.6-9.7-6.6-15.5-7.8,2.9-1.1,5.6-2.8,7.9-5.1,11.3-11.1,6.5-29.1-4.9-38.3-11.9-9.8-35.9-6.2-47.7,3.4-4.8.2-9.9,1.2-14.9,2.8-7.4,2.2-14.2,4.7-20.2,6.9-9.2,3.4-19.3,7.5-23.3,17.1-5.1,12.4,1.8,24.4,9.1,35.1,6,8.3,11.8,15.5,19.8,18.5,3.1.9,5.7,1,8,.4.8.4,1.8.9,2.9,1.5-1.1-.4-2.2-.7-3.2-1.1,23.5,17.7,71.5,31.2,85.4-5,3.7-9.4,4.1-20.7-3.3-28.4Z"/>
  <path class="st1" d="M92.2,21.4l-44.7,13.3,5.6,70.2s55.8,31.1,73.1,9.8c17.3-21.3,22.4-47.2-14.1-49.6,0,0,6.7,4.2,14.7-4.4,8-8.7-9.3-45.3-34.6-39.3Z"/>
  <path class="st0" d="M76.4,26.2c11.5-10.1,36.3-14.1,48.5-4,11.4,9.2,16.2,27.1,4.9,38.3-2.9,2.8-6.4,4.8-10.2,5.8,6.7-12.6,7.1-21-2.7-31.6-8.9-9.1-28.1-7.2-40.4-8.5h0Z"/>
  <path class="st0" d="M106.8,52.1c-.9-25.6-23.2-30.8-44.5-23.7-7.4,2.2-14.2,4.7-20.2,6.9-9.2,3.4-19.3,7.5-23.3,17.1-5.1,12.4,1.8,24.4,9.1,35.1,6,8.3,11.8,15.5,19.8,18.5,22.9,6.9,20.3-33.2,21.3-46.9,1.1-19.6,3.3.4,4.3,6.4,2,12.1,9.4,10.6,18.1,6.7,9-3.8,15.8-9.5,15.4-19.9v-.2Z"/>
  <path class="st0" d="M137.4,73.3c-5.7-5.9-19.2-10.4-25.4-7.5,16.5,1.3,31.6,14.2,23.8,31.5-3.2,6.1-9.5-.9-7.3-6.2,3.3-4.1,10.9-10.2,2.9-14.5-5.3-1.2-21.7-2.8-17.4,7.3,2.2,4,14,7.7,6.5,13.9-9.1,7.5-26,4.7-33.6-3.9,5.3,13.6,26.7,18.2,37.8,7.7.2.9,4.1,4,7.3,3.4-14.5,22.7-56.2,8.8-76.7,1.7,23.5,17.7,71.5,31.2,85.4-5,3.7-9.4,4.1-20.7-3.3-28.4Z"/>
  <ellipse class="st2" cx="90" cy="53.9" rx="7.9" ry="11.4"/>
  <ellipse class="st0" cx="90" cy="56" rx="7.8" ry="7.1"/>
  <circle class="st2" cx="92" cy="53.7" r="1.5"/>
  <g>
    <g>
      <g>
        <path class="st1" d="M184.5,103.5c-5.2,0-10.7-.6-14.7-1.6-3.7-1-5.8-3.1-6.5-10.9-1.2-15.1-1.7-27-1.7-40.9v-6.1c-.5.1-1,.2-1.5.2-3,0-3.7-2.6-4.1-4.5-.4-2.4-.6-5.2-.6-8.3s0-2.3,0-3.5c.3-4.9,2.2-5.8,5.1-6.5,7-2,14.9-2.9,24.8-2.9s26.1,4.3,26.1,16.4-4,14.8-11.9,20.7c9.9,2,15.5,8.9,15.5,19.2,0,16.2-13.4,28.8-30.6,28.8ZM180.6,81.8c1.5.3,3.1.4,4.9.4,4,0,10.6-1.1,10.6-8.3s-6.9-4.8-9.8-4.8-4.3.2-6.3.5l.5,12.1ZM179.3,39.7c0,4.2,0,8.3.1,12.3,6.4-2.8,11.6-7.2,13.7-11.6-1.7-.8-4.2-1.2-7.3-1.2s-3.9.1-6.6.5Z"/>
        <path class="st1" d="M185.4,19.4c12.4,0,25.1,4.4,25.1,15.4s-5.8,16.1-13.5,21.3c9.7,1.1,17.1,6.9,17.1,18.6s-12.6,27.8-29.6,27.8-10-.5-14.5-1.6c-3.2-.9-5.1-2.6-5.7-10-1.2-15.6-1.7-27.6-1.7-40.8v-7.4c-1,.3-1.8.5-2.5.5-1.7,0-2.6-1-3.1-3.7-.4-2.5-.6-5.4-.6-8.2s0-2.3,0-3.4c.3-4.4,1.8-4.9,4.4-5.6,6.9-2,14.8-2.9,24.5-2.9M178.5,53.5c8.2-3.2,14.1-8.7,16-13.6-1.9-1.1-4.9-1.7-8.6-1.7s-4.8.2-7.6.6c0,5.1,0,9.9.2,14.7M185.5,83.2c7.2,0,11.6-3.2,11.6-9.3s-5.1-5.8-10.8-5.8-5,.2-7.3.7l.6,13.8c2.1.5,4.1.6,5.9.6M185.4,17.4c-9.9,0-17.9.9-25,3-3.1.8-5.5,1.9-5.8,7.4,0,1.2,0,2.4,0,3.6,0,3.1.2,6.1.6,8.5.6,3.5,2.3,5.3,5,5.3s.4,0,.5,0v4.9c0,14,.5,25.8,1.7,41,.6,7.4,2.5,10.5,7.2,11.8,4.1,1.1,9.7,1.7,15,1.7,8.7,0,16.7-3.1,22.6-8.7,5.8-5.6,9-13.1,9-21.1s-5.1-17.1-14.3-19.7c7.1-5.8,10.7-12.6,10.7-20.2,0-12.8-14.6-17.4-27.1-17.4h0ZM180.3,40.6c2.2-.2,4-.4,5.5-.4,2.3,0,4.3.2,5.9.7-1.9,3.2-5.8,6.8-11.3,9.5,0-3.2-.1-6.5-.1-9.9h0ZM181.1,70.5c1.7-.2,3.4-.4,5.2-.4s8.8.3,8.8,3.8c0,6-5.2,7.3-9.6,7.3s-2.7,0-4-.3l-.5-10.4h0Z"/>
      </g>
      <g>
        <path class="st1" d="M231.3,104.1c-11.4,0-19.1-10-19.1-24.9s12.2-35.8,26-35.8,4.7.5,6.9,1.5c.3-1.8,1.1-3.1,3.3-3.1s5.8.7,8.9,1.8c3.4,1.2,4.8,2.6,4.8,8.4,0,9.1-.2,26.8-1.8,43.9-.4,4.4-1.4,6.9-5.3,7.5-1.1.2-2.5.2-3.8.2s-2.2,0-3-.1c-3.1-.6-4-2.1-4.3-4.3-3.8,3.3-8,5-12.4,5ZM240.2,61.8c-6.2,0-10.1,8.3-10.1,14.3s2.4,8.4,6.6,8.4,5.3-1.5,7.6-4.4c.2-5.5.5-11.4.6-17.1-1.7-.8-3.1-1.2-4.8-1.2Z"/>
        <path class="st1" d="M248.4,42.7c1.9,0,5.7.7,8.5,1.7,2.9,1,4.1,2.1,4.1,7.5,0,13.6-.5,29.8-1.8,43.8-.4,4.5-1.4,6.1-4.5,6.6-1.1.2-2.4.2-3.7.2s-2.1,0-2.9-.1c-3.2-.6-3.5-2.2-3.5-5.5-3.9,3.9-8.3,6.2-13.3,6.2-11.2,0-18.1-10.1-18.1-23.9,0-19.5,12.5-34.8,25-34.8s5.3.7,7.7,2.1c.2-2.9.9-3.7,2.5-3.7M236.7,85.5c2.9,0,5.9-1.6,8.6-5.1.3-5.9.5-12.1.6-18.1-1.7-.9-3.5-1.6-5.8-1.6-7.1,0-11.1,9.2-11.1,15.3s2.7,9.4,7.6,9.4M248.4,40.7c-2.4,0-3.5,1.3-4,2.8-2-.8-4.2-1.2-6.2-1.2-14.4,0-27,17.2-27,36.8s8.1,25.9,20.1,25.9,8.1-1.4,11.8-4.2c.6,1.6,1.8,3,4.7,3.5h0s0,0,0,0c.9.1,2.1.1,3.2.1s2.8,0,4-.3c5-.8,5.7-4.5,6.1-8.3,1.6-17.2,1.9-34.9,1.9-44s-1.3-7.9-5.5-9.4c-2.8-1-6.8-1.8-9.2-1.8h0ZM236.7,83.5c-4.9,0-5.6-4.7-5.6-7.4,0-5.4,3.5-13.3,9.1-13.3s2.5.3,3.8.8c0,5.3-.3,10.8-.6,16.1-2.1,2.5-4.4,3.8-6.6,3.8h0Z"/>
      </g>
      <g>
        <path class="st1" d="M271.2,102.9c-1,0-1.9,0-2.9-.1-4.6-.3-5.2-3.3-5.4-6.7-.4-6.9-.7-17.6-.7-29.2s.2-25.7,1.3-39.8c.3-5,.9-6.9,3.3-7.7,2.8-.9,6.9-1.4,9.4-1.4s3.5,2.6,3.5,5.5,0,3.4,0,5.2c0,1.9,0,3.9,0,5.9,0,21.7-.6,47.2-1.5,60.4h0c-.3,4.1-.4,7-5,7.6-.7.1-1.5.1-2.2.1Z"/>
        <path class="st1" d="M276.3,19.2c1.8,0,2.5.9,2.5,4.5s0,7.2,0,11.2c0,21.2-.6,46.9-1.5,60.4-.3,4.1-.4,6.2-4.1,6.7-.7.1-1.4.1-2.1.1s-1.8,0-2.7-.1c-3.6-.2-4.3-2.1-4.6-5.8-.4-6.8-.7-17.4-.7-29.1s.4-27.3,1.3-39.7c.4-5.2.9-6.2,2.6-6.8,2.7-.9,6.7-1.4,9.1-1.4M276.3,17.2c-2.6,0-6.8.5-9.8,1.5-3.1,1-3.6,3.5-4,8.5-1.1,14-1.3,29.4-1.3,39.8s.3,22.3.7,29.2c.3,3.5,1,7.2,6.4,7.6,1,.1,1.9.1,2.9.1s1.5,0,2.4-.1c5.3-.7,5.6-4.4,5.8-8.4h0c.9-13.4,1.5-38.9,1.5-60.6s0-4,0-5.9c0-1.8,0-3.5,0-5.2s0-6.5-4.5-6.5h0Z"/>
      </g>
      <g>
        <path class="st1" d="M290.7,103.4c-3.6,0-4.3-2.7-4.6-5.6-1.2-11.5-1.9-22.5-2.4-31.8l-1.5-.2c-3.1-.4-4.3-1.8-4.5-5.5,0-1.2-.2-3.5-.2-4.8,0-5.2,1.1-6.7,5.5-7.3v-2.3c0-2.5,0-5,.1-7.9v-1.2c.3-6.7,2.3-8.9,13.1-8.9s4.6,4.6,4.6,6.2,0,2.8-.2,5.4c-.1,2.6-.3,5.8-.4,8.5,1.7.2,3.5.4,5.3.8,3.5.7,4,3.3,4,5.8s-.2,4.4-.4,6.7c-.5,3.4-1.9,4.9-4.9,5.1-1.1.2-2.6.3-3.7.4.1,5.1.4,11.9.7,17.9.2,5.9.4,11,.4,12.5,0,2.5-.5,4.8-4,5.5-2.2.5-4.6.7-6.9.7Z"/>
        <path class="st1" d="M296.2,28.8c2.7,0,3.6,1.8,3.6,5.2s-.4,9.3-.6,14.8c2,.2,4,.5,6.1.9,2.4.5,3.2,1.8,3.2,4.8s-.2,4.4-.4,6.6c-.4,3-1.5,4-4,4.3-1.6.2-3.8.5-4.7.5.3,10.1,1.1,28.2,1.1,31.4s-.7,4-3.2,4.5c-2.2.5-4.5.7-6.7.7s-3.2-1-3.6-4.7c-1.1-10.8-1.8-21.3-2.5-32.5l-2.3-.3c-2.5-.3-3.4-1.1-3.7-4.6,0-1.6-.2-3.6-.2-4.7,0-5.2,1-6,5.5-6.4v-3.2c0-2.9,0-5.8.2-9.1.3-5.8,1.3-7.9,12-7.9M296.2,26.8c-10.7,0-13.7,2.1-14,9.8v1.3c-.1,2.9-.2,5.4-.2,7.9v1.5c-4.3.8-5.5,2.8-5.5,8.2s.1,3.6.2,4.8c.3,4.2,1.8,6,5.4,6.5h.7c.5,9.2,1.2,19.9,2.4,31.1.3,3,1.2,6.5,5.6,6.5s4.8-.3,7.1-.7c4.2-.8,4.8-3.9,4.8-6.4s-.2-6.4-.4-12.6c-.2-5.6-.5-12-.6-16.9.9,0,2-.2,2.8-.3,3.5-.3,5.2-2.1,5.8-6h0s0,0,0,0c.3-2.4.5-5.3.5-6.8,0-2.5-.5-6-4.8-6.8-1.5-.3-3-.5-4.5-.7,0-2.5.2-5.3.3-7.6.1-2.8.2-4.8.2-5.5,0-4.8-1.9-7.2-5.6-7.2h0Z"/>
      </g>
      <g>
        <path class="st1" d="M330.4,104.6c-16.3,0-26-11-26-29.5s13.4-32.2,25.9-32.2,4.9.5,7,1.3c1.8.8,3.1,1.7,3.1,4.6s0,.9-.1,2c9.1,3.3,14.6,12.7,14.6,25.4,0,18.4-12.5,28.4-24.4,28.4ZM329.6,62.1c-5.1,1.3-8.5,6.7-8.5,13.6s3.5,9.7,8.5,9.7,9.1-3.6,9.1-9.7-1.7-6.4-4.8-7.6c-2.9-1.2-4-2.1-4.3-6.1Z"/>
        <path class="st1" d="M330.3,43.9c1.9,0,4.6.5,6.7,1.3,1.5.7,2.5,1.3,2.5,3.7s0,1-.3,2.6c9.1,2.9,14.7,12.2,14.7,24.7s-12.1,27.4-23.4,27.4-25-10-25-28.5,12.7-31.2,24.9-31.2M329.6,86.4c4.8,0,10.1-3.9,10.1-10.7s-2.2-7.2-5.4-8.5c-2.7-1.1-3.6-1.7-3.7-6.3-6,.8-10.4,6.7-10.4,14.8s4.4,10.7,9.5,10.7M330.3,41.9c-12.9,0-26.9,12.7-26.9,33.2s10.1,30.5,27,30.5,12.7-2.8,17.3-7.7c3.7-3.8,8-10.7,8-21.7s-5.4-22.4-14.5-26.1c0-.6,0-1,0-1.3,0-3.5-1.8-4.6-3.6-5.5h0s0,0,0,0c-2.2-.8-5.1-1.4-7.4-1.4h0ZM329.6,84.4c-3.7,0-7.5-2.7-7.5-8.7s2.6-10.6,6.6-12.3c.4,3.2,1.8,4.4,4.7,5.6h0s0,0,0,0c2.7,1.1,4.2,3.4,4.2,6.6,0,5.4-4.1,8.7-8.1,8.7h0Z"/>
      </g>
    </g>
    <g>
      <path class="st2" d="M163.3,20.2c6.9-2,14.8-2.9,24.5-2.9s25.1,4.4,25.1,15.4-5.8,16.1-13.5,21.3c9.7,1.1,17.1,6.9,17.1,18.6s-12.6,27.8-29.6,27.8-10-.5-14.5-1.6c-3.2-.9-5.1-2.6-5.7-10-1.2-15.6-1.7-27.6-1.7-40.8v-7.4c-1,.3-1.8.5-2.5.5-1.7,0-2.6-1-3.1-3.7-.4-2.5-.6-5.4-.6-8.2s0-2.3,0-3.4c.3-4.4,1.8-4.9,4.4-5.6ZM181,51.5c8.2-3.2,14.1-8.7,16-13.6-1.9-1.1-4.9-1.7-8.6-1.7s-4.8.2-7.6.6c0,5.1,0,9.9.2,14.7ZM188.8,66.1c-2.5,0-5,.2-7.3.7l.6,13.8c2.1.5,4.1.6,5.9.6,7.2,0,11.6-3.2,11.6-9.3s-5.1-5.8-10.8-5.8Z"/>
      <path class="st2" d="M247.1,94.8c-3.9,3.9-8.3,6.2-13.3,6.2-11.2,0-18.1-10.1-18.1-23.9,0-19.5,12.5-34.8,25-34.8s5.3.7,7.7,2.1c.2-2.9.9-3.7,2.5-3.7s5.7.7,8.5,1.7c2.9,1,4.1,2.1,4.1,7.5,0,13.6-.5,29.8-1.8,43.8-.4,4.5-1.4,6.1-4.5,6.6-1.1.2-2.4.2-3.7.2s-2.1,0-2.9-.1c-3.2-.6-3.5-2.2-3.5-5.5ZM248.4,60.3c-1.7-.9-3.5-1.6-5.8-1.6-7.1,0-11.1,9.2-11.1,15.3s2.7,9.4,7.6,9.4,5.9-1.6,8.6-5.1c.3-5.9.5-12.1.6-18.1Z"/>
      <path class="st2" d="M269.6,18.5c2.7-.9,6.7-1.4,9.1-1.4s2.5.9,2.5,4.5,0,7.2,0,11.2c0,21.2-.6,46.9-1.5,60.4-.3,4.1-.4,6.2-4.1,6.7-.7.1-1.4.1-2.1.1s-1.8,0-2.7-.1c-3.6-.2-4.3-2.1-4.6-5.8-.4-6.8-.7-17.4-.7-29.1s.4-27.3,1.3-39.7c.4-5.2.9-6.2,2.6-6.8Z"/>
      <path class="st2" d="M286.4,47v-3.2c0-2.9,0-5.8.2-9.1.3-5.8,1.3-7.9,12-7.9s3.6,1.8,3.6,5.2-.4,9.3-.6,14.8c2,.2,4,.5,6.1.9,2.4.5,3.2,1.8,3.2,4.8s-.2,4.4-.4,6.6c-.4,3-1.5,4-4,4.3-1.6.2-3.8.5-4.7.5.3,10.1,1.1,28.2,1.1,31.4s-.7,4-3.2,4.5c-2.2.5-4.5.7-6.7.7s-3.2-1-3.6-4.7c-1.1-10.8-1.8-21.3-2.5-32.5l-2.3-.3c-2.5-.3-3.4-1.1-3.7-4.6,0-1.6-.2-3.6-.2-4.7,0-5.2,1-6,5.5-6.4Z"/>
      <path class="st2" d="M341.9,46.7c0,.5,0,1-.3,2.6,9.1,2.9,14.7,12.2,14.7,24.7s-12.1,27.4-23.4,27.4-25-10-25-28.5,12.7-31.2,24.9-31.2,4.6.5,6.7,1.3c1.5.7,2.5,1.3,2.5,3.7ZM333,58.8c-6,.8-10.4,6.7-10.4,14.8s4.4,10.7,9.5,10.7,10.1-3.9,10.1-10.7-2.2-7.2-5.4-8.5c-2.7-1.1-3.6-1.7-3.7-6.3Z"/>
    </g>
    <g>
      <path class="st2" d="M169.9,122c0-2.9,1.6-5,4.5-5s3.8,1.4,4.1,3.6h-2.2c-.1-1.1-.9-1.7-1.9-1.7s-2.2,1.3-2.2,3.2.8,3.2,2.2,3.2,1.8-.8,1.9-2.1h2.2c-.2,2.4-1.7,4-4.1,4s-4.4-2.1-4.4-5.1Z"/>
      <path class="st2" d="M179.6,122c0-3,1.8-5.1,4.6-5.1s4.6,2.1,4.6,5.1-1.8,5.1-4.6,5.1-4.6-2.1-4.6-5.1ZM186.5,122c0-1.8-.9-3.2-2.3-3.2s-2.3,1.4-2.3,3.2.8,3.2,2.3,3.2,2.3-1.4,2.3-3.2Z"/>
      <path class="st2" d="M190.7,117.2h2.2v1.4c.5-1,1.6-1.6,2.7-1.6,2,0,3.2,1.3,3.2,3.7v6.2h-2.2v-5.7c0-1.5-.7-2.3-1.8-2.3s-1.9.9-1.9,2.4v5.6h-2.2v-9.6Z"/>
      <path class="st2" d="M200.6,122c0-3,1.8-5.1,4.6-5.1s4.6,2.1,4.6,5.1-1.8,5.1-4.6,5.1-4.6-2.1-4.6-5.1ZM207.5,122c0-1.8-.9-3.2-2.3-3.2s-2.3,1.4-2.3,3.2.8,3.2,2.3,3.2,2.3-1.4,2.3-3.2Z"/>
      <path class="st2" d="M211,122c0-2.9,1.6-5,4.5-5s3.8,1.4,4.1,3.6h-2.2c-.1-1.1-.9-1.7-1.9-1.7s-2.2,1.3-2.2,3.2.8,3.2,2.2,3.2,1.8-.8,1.9-2.1h2.2c-.2,2.4-1.7,4-4.1,4s-4.4-2.1-4.4-5.1Z"/>
      <path class="st2" d="M220.7,122c0-2.9,1.7-5.1,4.5-5.1s4.4,1.9,4.4,4.9v.7h-6.7c0,1.5.9,2.6,2.4,2.6s1.9-.4,2.1-1.3h2.1c-.4,1.9-2,3.1-4.3,3.1s-4.6-2.2-4.6-5.1ZM225.2,118.8c-1.3,0-2.1.9-2.2,2.2h4.4c0-1.3-.9-2.2-2.2-2.2Z"/>
      <path class="st2" d="M235.3,124.3c0-1.8,1.3-2.6,3.5-3,1.5-.3,2.4-.4,2.4-1.4s-.6-1.2-1.6-1.2-1.8.5-1.8,1.5h-2.2c0-2.1,1.7-3.3,4-3.3s3.7,1.1,3.7,3.1v4.4c0,.4.1.7.6.7s.3,0,.4,0v1.7c-.2,0-.6.2-1,.2-1.1,0-1.7-.6-1.9-1.5-.6,1-1.8,1.6-3.1,1.6s-3-1-3-2.7ZM241.2,123.9v-1.9c-.5.4-.9.6-2,.9-1.1.3-1.6.6-1.6,1.3s.5,1,1.2,1,1.9-.5,2.4-1.3Z"/>
      <path class="st2" d="M251.2,124.1v-5.1h-1.5v-1.8h1.5v-2.7h2.2v2.7h1.9v1.8h-1.9v4.9c0,1,.4,1.2,1.1,1.2s.8,0,1-.2v1.8c-.3.1-.9.2-1.5.2-2,0-2.9-.9-2.9-2.9Z"/>
      <path class="st2" d="M257.3,123.4v-6.2h2.2v5.7c0,1.5.7,2.3,1.8,2.3s1.9-.9,1.9-2.4v-5.6h2.2v9.6h-2.1v-1.4c-.5,1-1.5,1.6-2.7,1.6-2,0-3.3-1.3-3.3-3.7Z"/>
      <path class="st2" d="M272.4,117.2h2.2v1.4c.6-1,1.5-1.6,2.6-1.6s2.3.5,2.8,1.7c.6-1.1,1.6-1.7,2.9-1.7,2,0,3.2,1.4,3.2,3.4v6.5h-2.2v-5.8c0-1.5-.6-2.2-1.7-2.2s-1.7.7-1.8,2.2v5.8h-2.2v-5.7c0-1.5-.6-2.3-1.7-2.3s-1.8.9-1.8,2.4v5.6h-2.2v-9.6Z"/>
      <path class="st2" d="M287.8,124.3c0-1.8,1.3-2.6,3.5-3,1.5-.3,2.4-.4,2.4-1.4s-.6-1.2-1.6-1.2-1.8.5-1.8,1.5h-2.2c0-2.1,1.7-3.3,4-3.3s3.7,1.1,3.7,3.1v4.4c0,.4.1.7.6.7s.3,0,.4,0v1.7c-.2,0-.6.2-1,.2-1.1,0-1.7-.6-1.9-1.5-.6,1-1.8,1.6-3.1,1.6s-3-1-3-2.7ZM293.7,123.9v-1.9c-.5.4-.9.6-2,.9-1.1.3-1.6.6-1.6,1.3s.5,1,1.2,1,1.9-.5,2.4-1.3Z"/>
      <path class="st2" d="M297.7,123.6h2.2c0,1.1.8,1.6,1.9,1.6s1.6-.4,1.6-1.1c0-1-1.1-1.1-2.3-1.4-1.7-.4-3.2-1-3.2-2.9s1.7-2.9,3.7-2.9,3.6,1,3.7,3.2h-2.2c0-.9-.7-1.3-1.6-1.3s-1.5.4-1.5,1,.8.9,2.3,1.3c1.7.4,3.2,1,3.2,2.9s-1.8,3.1-3.9,3.1-4-1.3-4-3.4Z"/>
      <path class="st2" d="M306.8,122c0-2.9,1.6-5,4.5-5s3.8,1.4,4.1,3.6h-2.2c-.1-1.1-.9-1.7-1.9-1.7s-2.2,1.3-2.2,3.2.8,3.2,2.2,3.2,1.8-.8,1.9-2.1h2.2c-.2,2.4-1.7,4-4.1,4s-4.4-2.1-4.4-5.1Z"/>
      <path class="st2" d="M316.5,122c0-3,1.8-5.1,4.6-5.1s4.6,2.1,4.6,5.1-1.8,5.1-4.6,5.1-4.6-2.1-4.6-5.1ZM323.4,122c0-1.8-.9-3.2-2.3-3.2s-2.3,1.4-2.3,3.2.8,3.2,2.3,3.2,2.3-1.4,2.3-3.2Z"/>
      <path class="st2" d="M327.2,124.1v-5.1h-1.5v-1.8h1.5v-2.7h2.2v2.7h1.9v1.8h-1.9v4.9c0,1,.4,1.2,1.1,1.2s.8,0,1-.2v1.8c-.3.1-.9.2-1.5.2-2,0-2.9-.9-2.9-2.9Z"/>
      <path class="st2" d="M332.8,124.3c0-1.8,1.3-2.6,3.5-3,1.5-.3,2.4-.4,2.4-1.4s-.6-1.2-1.6-1.2-1.8.5-1.8,1.5h-2.2c0-2.1,1.7-3.3,4-3.3s3.7,1.1,3.7,3.1v4.4c0,.4.1.7.6.7s.3,0,.4,0v1.7c-.2,0-.6.2-1,.2-1.1,0-1.7-.6-1.9-1.5-.6,1-1.8,1.6-3.1,1.6s-3-1-3-2.7ZM338.6,123.9v-1.9c-.5.4-.9.6-2,.9-1.1.3-1.6.6-1.6,1.3s.5,1,1.2,1,1.9-.5,2.4-1.3Z"/>
    </g>
  </g>
</svg>