<?xml version="1.0" encoding="UTF-8"?>
<svg id="Layer_1" xmlns="http://www.w3.org/2000/svg" version="1.1" viewBox="0 0 148.9 141.3">
  <!-- Generator: Adobe Illustrator 29.5.1, SVG Export Plug-In . SVG Version: 2.1.0 Build 141)  -->
  <defs>
    <style>
      .st0 {
        fill: #fbcd5b;
      }

      .st1 {
        fill: #4ea556;
      }
    </style>
  </defs>
  <path class="st0" d="M95.3,71.4l18.1-57.7c.5-1.6.3-3.3-.8-4.7-1-1.3-2.5-2.1-4.2-2.1h-25.6c-2.4,0-4.5,1.6-5.1,4l-9.2,39.5V12.1c0-2.9-2.3-5.2-5.2-5.2h-25.3c-2.9,0-5.2,2.3-5.2,5.2v118.7c0,2.9,2.3,5.2,5.2,5.2h25.3c2.9,0,5.2-2.3,5.2-5.2v-38.4l9.2,39.6c.6,2.4,2.7,4,5.1,4h25.6c1.7,0,3.3-.8,4.2-2.1,1-1.4,1.3-3.1.8-4.7l-18.1-57.8Z"/>
  <path class="st1" d="M42.6,6h25.3c1.5,0,2.7,1.2,2.7,2.7v41.9c0,1.1.7,1.9,1.8,2.1,1,.1,2.1-.4,2.3-1.5l10-43.1c.3-1.2,1.4-2.1,2.6-2.1h25.6c.9,0,1.6.4,2.2,1.1.5.7.7,1.6.4,2.4l-18.1,57.7c-.2.6-.2,1.1,0,1.6l18.1,57.7c.3.9.1,1.7-.4,2.4-.5.7-1.3,1.1-2.2,1.1h-25.6c-1.3,0-2.3-.9-2.6-2.1l-10-43.1c-.2-1-1.3-1.6-2.3-1.5s-1.8,1-1.8,2.1v41.9c0,1.5-1.2,2.7-2.7,2.7h-25.3c-1.5,0-2.7-1.2-2.7-2.7V8.7c0-1.5,1.2-2.7,2.7-2.7Z"/>
  <path class="st0" d="M59.1,126.5c-.2-.3-.5-.4-.6-.5-.4,0-1.2.1-1.4-.1-.2-.1-1.3-2.3-1.6-5.7-.1-3.3-1.2-11.6-.8-13.1,0,0,3-5.9,3.4-7.2,0,0,2.3-2.7,2.2-5.5,0,0,.2-3.3,1.4-5.9,1.3-2.6,1.9-4.4,1.9-4.4,0,0,1.6.4,1.9,1.2,0,0,.4.7.4-.5s.4-4.4.2-4.8c0,0,.8-.3.8-.5.1-.3.7,0,1,.1s.8-.1,1.3-.3c.5,0,1.7-.7,2.5-.7s1.1-.8,1-1c0,0,.6.1,1.4-.4s2-2.1,1.9-3.8c0,0,1.7-2.2.4-2.9,0,0-.4-.5-2.4-.4-2.2,0-4.9.7-5.4-.3q-.6-.9-1.9-.8c-1.3,0-4.7.4-6.1,1.6-1.6,1.2-1.1,2.1-1.4,2.5-.2.4-1.8,2.1-2.4,2.7-.5.7-2.5,3.5-3.5,4.4-.8.8-2.5,2.2-3.6,2.7-1,.5-2.2.8-3.8,1-1.6.4-3.6,1.3-4.3,1.4-.7.3-4.2,1-7.3.5l.2,17.5c2.3.4,3.9.7,6,1.4,4.2,1.6,6.7,2,8.1,2,0,0-.2.5.2,1.3.6.7.7,1.2.7,2.3s1.3,9.1,1.3,11.3.1,2.7,0,3.1c-.2.4-.6,1-.1,1.3.5.1,1.3-.1,1.4.1s.8,3.1.8,4.3,0,.7.1.9h-.1c.1,0,.3.1.4.2,2.1-.2,4.1-.4,6.2-.5M57.4,129.5c.2-.1,1,0,1.7,0v1.7c-1-.9-1.9-1.4-1.7-1.7Z"/>
</svg>