<?xml version="1.0" encoding="UTF-8"?>
<svg id="Layer_1" xmlns="http://www.w3.org/2000/svg" version="1.1" viewBox="0 0 290.1 141.3">
  <!-- Generator: Adobe Illustrator 29.5.1, SVG Export Plug-In . SVG Version: 2.1.0 Build 141)  -->
  <defs>
    <style>
      .st0, .st1 {
        fill: #fbcd5b;
      }

      .st2 {
        fill: #fff;
      }

      .st1 {
        stroke: #fbcd5b;
        stroke-miterlimit: 10;
        stroke-width: 3px;
      }
    </style>
  </defs>
  <g>
    <path class="st2" d="M17.9,125.8c0-4.4,2.4-7.5,6.8-7.5s5.7,2.1,6.2,5.4h-3.3c-.2-1.7-1.4-2.6-2.9-2.6s-3.3,2-3.3,4.8,1.2,4.8,3.3,4.8,2.7-1.2,2.9-3.2h3.3c-.3,3.6-2.6,6-6.2,6s-6.6-3.2-6.6-7.7l-.2-.2Z"/>
    <path class="st2" d="M32.4,125.8c0-4.5,2.7-7.7,6.9-7.7s6.9,3.2,6.9,7.7-2.7,7.7-6.9,7.7-6.9-3.2-6.9-7.7ZM42.8,125.8c0-2.7-1.4-4.8-3.5-4.8s-3.5,2.1-3.5,4.8,1.2,4.8,3.5,4.8,3.5-2.1,3.5-4.8Z"/>
    <path class="st2" d="M49.1,118.6h3.3v2.1c.8-1.5,2.4-2.4,4.1-2.4,3,0,4.8,2,4.8,5.6v9.3h-3.3v-8.6c0-2.3-1.1-3.5-2.7-3.5s-2.9,1.4-2.9,3.6v8.4h-3.3v-14.6Z"/>
    <path class="st2" d="M63.9,125.8c0-4.5,2.7-7.7,6.9-7.7s6.9,3.2,6.9,7.7-2.7,7.7-6.9,7.7-6.9-3.2-6.9-7.7ZM74.3,125.8c0-2.7-1.4-4.8-3.5-4.8s-3.5,2.1-3.5,4.8,1.2,4.8,3.5,4.8,3.5-2.1,3.5-4.8Z"/>
    <path class="st2" d="M79.5,125.8c0-4.4,2.4-7.5,6.8-7.5s5.7,2.1,6.2,5.4h-3.3c-.2-1.7-1.4-2.6-2.9-2.6s-3.3,2-3.3,4.8,1.2,4.8,3.3,4.8,2.7-1.2,2.9-3.2h3.3c-.3,3.6-2.6,6-6.2,6s-6.6-3.2-6.6-7.7l-.2-.2Z"/>
    <path class="st2" d="M94.1,125.8c0-4.4,2.6-7.7,6.8-7.7s6.6,2.9,6.6,7.4v1.1h-10.1c0,2.3,1.4,3.9,3.6,3.9s2.9-.6,3.2-2h3.2c-.6,2.9-3,4.7-6.5,4.7s-6.9-3.3-6.9-7.7l.2.3ZM100.8,121c-2,0-3.2,1.4-3.3,3.3h6.6c0-2-1.4-3.3-3.3-3.3Z"/>
    <path class="st2" d="M116,129.3c0-2.7,2-3.9,5.3-4.5,2.3-.5,3.6-.6,3.6-2.1s-.9-1.8-2.4-1.8-2.7.8-2.7,2.3h-3.3c0-3.2,2.6-5,6-5s5.6,1.7,5.6,4.7v6.6c0,.6.2,1.1.9,1.1s.5,0,.6,0v2.6c-.3,0-.9.3-1.5.3-1.7,0-2.6-.9-2.9-2.3-.9,1.5-2.7,2.4-4.7,2.4s-4.5-1.5-4.5-4.1v-.2ZM124.8,128.7v-2.9c-.8.6-1.4.9-3,1.4s-2.4.9-2.4,2,.8,1.5,1.8,1.5,2.9-.8,3.6-2Z"/>
    <path class="st2" d="M139.8,129v-7.7h-2.3v-2.7h2.3v-4.1h3.3v4.1h2.9v2.7h-2.9v7.4c0,1.5.6,1.8,1.7,1.8s1.2,0,1.5-.3v2.7c-.5.2-1.4.3-2.3.3-3,0-4.4-1.4-4.4-4.4v.2Z"/>
    <path class="st2" d="M149,127.9v-9.3h3.3v8.6c0,2.3,1.1,3.5,2.7,3.5s2.9-1.4,2.9-3.6v-8.4h3.3v14.4h-3.2v-2.1c-.8,1.5-2.3,2.4-4.1,2.4-3,0-5-2-5-5.6v.2Z"/>
    <path class="st2" d="M171.6,118.6h3.3v2.1c.9-1.5,2.3-2.4,3.9-2.4s3.5.8,4.2,2.6c.9-1.7,2.4-2.6,4.4-2.6,3,0,4.8,2.1,4.8,5.1v9.8h-3.3v-8.7c0-2.3-.9-3.3-2.6-3.3s-2.6,1.1-2.7,3.3v8.7h-3.3v-8.6c0-2.3-.9-3.5-2.6-3.5s-2.7,1.4-2.7,3.6v8.4h-3.3v-14.6Z"/>
    <path class="st2" d="M194.7,129.3c0-2.7,2-3.9,5.3-4.5,2.3-.5,3.6-.6,3.6-2.1s-.9-1.8-2.4-1.8-2.7.8-2.7,2.3h-3.3c0-3.2,2.6-5,6-5s5.6,1.7,5.6,4.7v6.6c0,.6.2,1.1.9,1.1s.5,0,.6,0v2.6c-.3,0-.9.3-1.5.3-1.7,0-2.6-.9-2.9-2.3-.9,1.5-2.7,2.4-4.7,2.4s-4.5-1.5-4.5-4.1v-.2ZM203.6,128.7v-2.9c-.8.6-1.4.9-3,1.4s-2.4.9-2.4,2,.8,1.5,1.8,1.5,2.9-.8,3.6-2Z"/>
    <path class="st2" d="M209.6,128.2h3.3c0,1.7,1.2,2.4,2.9,2.4s2.4-.6,2.4-1.7c0-1.5-1.7-1.7-3.5-2.1-2.6-.6-4.8-1.5-4.8-4.4s2.6-4.4,5.6-4.4,5.4,1.5,5.6,4.8h-3.3c0-1.4-1.1-2-2.4-2s-2.3.6-2.3,1.5,1.2,1.4,3.5,2c2.6.6,4.8,1.5,4.8,4.4s-2.7,4.7-5.9,4.7-6-2-6-5.1v-.2Z"/>
    <path class="st2" d="M223.2,125.8c0-4.4,2.4-7.5,6.8-7.5s5.7,2.1,6.2,5.4h-3.3c-.2-1.7-1.4-2.6-2.9-2.6s-3.3,2-3.3,4.8,1.2,4.8,3.3,4.8,2.7-1.2,2.9-3.2h3.3c-.3,3.6-2.6,6-6.2,6s-6.6-3.2-6.6-7.7l-.2-.2Z"/>
    <path class="st2" d="M237.8,125.8c0-4.5,2.7-7.7,6.9-7.7s6.9,3.2,6.9,7.7-2.7,7.7-6.9,7.7-6.9-3.2-6.9-7.7ZM248.1,125.8c0-2.7-1.4-4.8-3.5-4.8s-3.5,2.1-3.5,4.8,1.2,4.8,3.5,4.8,3.5-2.1,3.5-4.8Z"/>
    <path class="st2" d="M253.8,129v-7.7h-2.3v-2.7h2.3v-4.1h3.3v4.1h2.9v2.7h-2.9v7.4c0,1.5.6,1.8,1.7,1.8s1.2,0,1.5-.3v2.7c-.5.2-1.4.3-2.3.3-3,0-4.4-1.4-4.4-4.4v.2Z"/>
    <path class="st2" d="M262.3,129.3c0-2.7,2-3.9,5.3-4.5,2.3-.5,3.6-.6,3.6-2.1s-.9-1.8-2.4-1.8-2.7.8-2.7,2.3h-3.3c0-3.2,2.6-5,6-5s5.6,1.7,5.6,4.7v6.6c0,.6.2,1.1.9,1.1s.5,0,.6,0v2.6c-.3,0-.9.3-1.5.3-1.7,0-2.6-.9-2.9-2.3-.9,1.5-2.7,2.4-4.7,2.4s-4.5-1.5-4.5-4.1v-.2ZM271,128.7v-2.9c-.8.6-1.4.9-3,1.4s-2.4.9-2.4,2,.8,1.5,1.8,1.5,2.9-.8,3.6-2Z"/>
  </g>
  <path class="st0" d="M66,57l14.4-45.9c.4-1.3.2-2.6-.6-3.7-.8-1.1-2-1.7-3.3-1.7h-20.3c-1.9,0-3.6,1.3-4,3.2l-7.3,31.4V9.9c0-2.3-1.9-4.2-4.2-4.2h-20.1c-2.3,0-4.2,1.9-4.2,4.2v94.4c0,2.3,1.9,4.2,4.2,4.2h20.1c2.3,0,4.2-1.9,4.2-4.2v-30.5l7.3,31.5c.5,1.9,2.1,3.2,4,3.2h20.3c1.4,0,2.6-.6,3.3-1.7.8-1.1,1-2.4.6-3.7l-14.4-46Z"/>
  <path class="st0" d="M137.5,30.1h-20.1c-2.3,0-4.2,1.9-4.2,4.2v3.2c-3.7-4.8-8.6-7.4-14.6-7.4-14,0-22.1,14.3-22.1,39.1s8,39.1,22.1,39.1,10.9-2.6,14.6-7.4v3.2c0,2.3,1.9,4.2,4.2,4.2h20.1c2.3,0,4.1-1.9,4.1-4.2V34.3c0-2.3-1.9-4.2-4.2-4.2ZM113.2,69.3c0,6.4-1.7,10.7-4.1,10.7s-4.1-4.5-4.1-10.7,1.7-10.7,4.1-10.7c2.5,0,4.1,4.3,4.1,10.7Z"/>
  <path class="st0" d="M264.2,31.1h-20.1c-2.3,0-4.2,1.9-4.2,4.2v35c0,6.4-1.6,10.7-4.1,10.7s-4.1-4.4-4.1-10.7v-35c0-2.3-1.9-4.2-4.2-4.2h-20.1c-2.3,0-4.2,1.9-4.2,4.2v35c0,24.9,8,39.1,22.1,39.1s10.9-2.5,14.6-7.4v3.2c0,2.3,1.9,4.2,4.2,4.2h20.1c2.3,0,4.2-1.9,4.2-4.2V35.2c0-2.3-1.9-4.2-4.2-4.2Z"/>
  <path class="st2" d="M24,5h20.1c1.2,0,2.2,1,2.2,2.2v33.3c0,.8.6,1.5,1.4,1.7.8.1,1.7-.3,1.9-1.2l8-34.3c.2-1,1.1-1.7,2.1-1.7h20.3c.7,0,1.3.3,1.7.9.4.6.5,1.2.3,1.9l-14.4,45.9c-.1.4-.1.8,0,1.3l14.4,45.9c.2.7.1,1.3-.3,1.9-.4.6-1,.9-1.7.9h-20.3c-1,0-1.9-.7-2.1-1.7l-8-34.3c-.2-.8-1-1.3-1.9-1.2s-1.4.8-1.4,1.7v33.3c0,1.2-1,2.2-2.2,2.2h-20.1c-1.2,0-2.2-1-2.2-2.2V7.2c0-1.2,1-2.2,2.2-2.2Z"/>
  <path class="st2" d="M141.1,103.7h-20.1c-1.2,0-2.2-1-2.2-2.2v-6.4c0-.5-.3-.9-.8-1-.5-.1-.9,0-1.2.5-3.3,5.8-8.2,9.1-14.6,9.1-13.2,0-20.1-14.3-20.1-37.1s6.9-37.1,20.1-37.1,11.3,3.2,14.6,9.1c.2.4.7.6,1.2.5.5-.1.8-.5.8-1v-6.4c0-1.2,1-2.2,2.2-2.2h20.1c1.2,0,2.2,1,2.2,2.2v69.9c0,1.2-1,2.2-2.2,2.2Z"/>
  <path class="st2" d="M208.8,32.6c0-1.2,1-2.2,2.2-2.2h20.1c1.2,0,2.2,1,2.2,2.2v35c0,7.2,2.1,12.7,6.1,12.7s6.1-5.5,6.1-12.7v-35c0-1.2,1-2.2,2.2-2.2h20.1c1.2,0,2.2,1,2.2,2.2v70c0,1.2-1,2.2-2.2,2.2h-20.1c-1.2,0-2.2-1-2.2-2.2v-6.4c0-.5-.3-.9-.8-1-.5-.1-.9,0-1.2.5-3.3,5.8-8.2,9.1-14.6,9.1-13.2,0-20.1-14.3-20.1-37.1v-35Z"/>
  <path class="st0" d="M256,105.2l.3-3.4c0-.4,0-.7.2-1.1l.7-1.4c.3-.5.6-1.1.8-1.7.5-.7.7-1.7.8-2.4.2-.8,0-1.6-.5-2.3-.2-.5-.2-.8-.2-1.2,0-.6,0-1.2.2-1.8,0-.4.2-.8.5-1.2s.4-1,.5-1.5c0-.6,0-1.1-.3-1.6-.2-.2-.2-.4-.2-.7,0-.2,0-.3,0-.5,0-.2,0-.3,0-.5,0-.2,0-.2,0-.3s0-.2.2-.3c0-.4.2-.7.2-.9s0-.3,0-.5,0-.3,0-.4,0-.3,0-.5v-1.1c-.2-.5-.3-.9-.3-1.4,0-.2-.2-.3-.3-.6-.2,0-.2,0-.5,0,0,0-.2,0-.2.3-.3.2-.6.5-.7.7l-.7,1.2c0,.2-.3.4-.4.7,0,0-.2.2-.2.3,0,0,0,.2-.2.2h-.2c-.2,0-.4,0-.6,0h-.2c-.2,0-.2,0-.4,0-.2,0-.4,0-.6-.3-.4-.4-.7-.9-.9-1.4l-.7-1c-.2-.2-.5-.6-.7-.7-.3,0-.3,0-.4,0-.4.4-.6.7-.7,1.2,0,.6,0,1.1,0,1.7,0,.2,0,.6,0,.7s0,.2,0,.4c0,.2,0,.5,0,.7,0,.2.2.5.3.7,0,0,.2.2,0,.4,0,.2,0,.5-.2.7,0,.3-.2.6-.3.9s-.2.7-.3,1c-.2.4-.2.7-.3,1.2,0,.2,0,.6-.2.7l-.7.9c-.3.6-.7,1.1-.9,1.6s0,.2-.2.3c-.3.4-.7.7-1.1,1,0,0-.2.2-.4.3-.3.2-.7.7-1,1l-2.1,2c-.5.5-.9.8-1.4,1.2-1,1.1-1.7,2.2-2.6,3.3-.5.6-.8,1.3-1.2,1.9l-1.1,2.2c0,0,0,.2-.2.3-.2.3-.2.7-.3,1.1l4.1-4.3c1.3-.3,6.3,7.8,7.9,7.3,0-.2.2-.4.2-.6,0-.3,0-.6.2-.9,0-.2,0-.4.2-.6.3-.3.7-.6,1-.7.3-.2.7-.3,1.1-.3s.7,0,1.1-.3c.2,0,.3,0,.5-.2.2.2.2.5.6.8l.3.6,2.8-.9Z"/>
  <path class="st0" d="M37.1,100.9c-.2-.2-.4-.3-.5-.4-.3,0-1,.1-1.1-.1-.2-.1-1-1.9-1.2-4.6,0-2.6-1-9.2-.7-10.4,0,0,2.4-4.7,2.7-5.7,0,0,1.8-2.2,1.7-4.3,0,0,.2-2.6,1.1-4.7,1-2.1,1.5-3.5,1.5-3.5,0,0,1.2.3,1.5.9,0,0,.3.5.3-.4s.3-3.5.2-3.8c0,0,.7-.2.7-.4,0-.2.6,0,.8.1s.7-.1,1-.2c.4,0,1.3-.5,2-.5s.9-.6.8-.8c0,0,.5.1,1.1-.3s1.6-1.7,1.5-3c0,0,1.3-1.8.3-2.3,0,0-.3-.4-1.9-.3-1.7,0-3.9.5-4.3-.2q-.5-.7-1.5-.6c-1,0-3.7.3-4.9,1.2-1.2.9-.9,1.7-1.1,2-.2.3-1.4,1.7-1.9,2.2-.4.5-2,2.8-2.8,3.5-.7.6-2,1.8-2.9,2.2-.8.4-1.7.6-3,.8-1.2.3-2.9,1-3.4,1.1-.6.2-3.3.8-5.8.4v13.9c1.9.3,3.2.6,4.9,1.1,3.3,1.2,5.3,1.6,6.5,1.6,0,0-.2.4.2,1,.5.5.6.9.6,1.9s1,7.2,1,9,0,2.2,0,2.5c-.2.3-.5.8,0,1,.4.1,1-.1,1.1.1s.7,2.5.7,3.4,0,.5,0,.7h-.1c.1,0,.2.1.3.2,1.6-.2,3.3-.3,4.9-.4M35.8,103.2c.2-.1.8,0,1.3,0v1.3c-.8-.7-1.5-1.1-1.3-1.3Z"/>
  <path class="st0" d="M104.7,58.7c2.5,1.3,5.2-1,6.3-3.2,1.2-2.2.3-6.1-2.7-5.8-3.9.5-6.6,6.1-3.6,9Z"/>
  <path class="st0" d="M116.6,60.1c3.6.3,7.2-2.6,7.3-6.3,0-1.9-1.8-3.4-3.7-3.2-3.5.2-6.7,3.1-6.6,6.6,0,1.6,1.5,2.9,3,2.9Z"/>
  <path class="st0" d="M131,63.2c0-1.9-2.1-3.1-3.9-3-2.8.1-5.5,2.2-6.4,4.9-.5,1.6.1,3.6,1.8,4.2,3.8,1.3,8.3-2,8.4-6.1Z"/>
  <path class="st0" d="M116.7,65.1c-1.5-2.4-4.5-3.4-7.2-3.8-4-.6-8.7.4-11.3,3.7-.9.9-.5,2.3.5,3,2.3,2,5.3,3.5,6.8,6.3,1.4,2,1.8,4.5,2.9,6.7.5,1.1,1.9,1.5,2.9.8,3.1-1.6,5.2-4.8,6-8.1.7-2.8.8-6-.6-8.6Z"/>
  <path class="st0" d="M124.4,72.1c-2.6.1-5.7,1.9-5.7,4.8.6,2.7,4.1,3.3,6.3,2.4,2.3-.6,4.5-3,3.4-5.3-.9-1.2-2.4-1.8-3.9-1.9Z"/>
  <path class="st1" d="M195.2,43.2v-9.9c0-1-.9-1.8-1.9-1.8h-33c-1.1,0-2,.8-2,1.8v18.4c0,1.1.9,1.9,2,1.9h12.9v34.4h0v7.7c0,2.9-1.1,4.3-3.4,4.3s-3.6-1.3-3.6-4v-10.1c0-.8-.8-1.3-1.6-.9l-17.6,8c-.4.2-.6.6-.6,1,.4,12.4,10.8,20.4,23.8,20.4s25.3-8.9,25.3-21.9l-.2-49.4Z"/>
  <path class="st2" d="M198.5,42v-9.9c0-1-.9-1.8-1.9-1.8h-33c-1.1,0-2,.8-2,1.8v18.4c0,1.1.9,1.9,2,1.9h12.9v34.4h0v7.7c0,2.9-1.1,4.3-3.4,4.3s-3.6-1.3-3.6-4v-10.1c0-.8-.8-1.3-1.6-.9l-17.6,8c-.4.2-.6.6-.6,1,.4,12.4,10.8,20.4,23.8,20.4s25.3-8.9,25.3-21.9l-.2-49.4Z"/>
  <g>
    <path class="st0" d="M184.6,52.8c.2-.9-.7-1.5-1.4-1.7-.7-.2-1.9.3-1.6,1.2.4,1.2,2.3,1.6,3,.5Z"/>
    <path class="st0" d="M184.2,49.1c-.2-1.1-1.3-2-2.4-1.8-.6.1-.9.8-.7,1.4.3,1,1.4,1.8,2.5,1.5.5-.1.8-.6.7-1.1Z"/>
    <path class="st0" d="M184.1,44.5c-.6.1-.8.9-.6,1.4.2.9,1.1,1.5,2,1.6.5,0,1.1-.3,1.1-.9.1-1.2-1.2-2.4-2.5-2.1Z"/>
    <path class="st0" d="M185.7,48.7c-.6.6-.7,1.6-.6,2.5.1,1.3.8,2.6,2,3.2.4.2.7,0,.9-.4.4-.9.7-1.9,1.4-2.5.5-.6,1.3-.9,1.8-1.4.3-.2.3-.7,0-1-.7-.8-1.8-1.2-2.9-1.2-.9,0-1.9.2-2.6.8Z"/>
    <path class="st0" d="M187.3,45.9c.2.8,1,1.6,1.9,1.4.8-.4.7-1.5.3-2.1-.3-.7-1.2-1.1-1.9-.6-.3.4-.4.9-.3,1.3Z"/>
  </g>
  <g>
    <path class="st0" d="M170.1,42c.2-1-.8-1.8-1.7-2-.9-.3-2.2.4-1.9,1.4.5,1.4,2.7,1.8,3.5.5Z"/>
    <path class="st0" d="M169.6,37.6c-.2-1.3-1.5-2.3-2.8-2.1-.7.1-1.1.9-.8,1.6.4,1.2,1.7,2.1,2.9,1.8.6-.2.9-.8.8-1.3Z"/>
    <path class="st0" d="M169.5,32.2c-.7.2-.9,1-.7,1.6.3,1,1.2,1.8,2.3,1.9.6,0,1.3-.3,1.3-1,.1-1.5-1.4-2.8-2.9-2.5Z"/>
    <path class="st0" d="M171.4,37.1c-.7.8-.8,1.9-.7,2.9.1,1.5.9,3.1,2.3,3.7.4.2.8,0,1-.4.5-1,.8-2.2,1.7-2.9.6-.7,1.5-1,2.1-1.6.4-.3.4-.8,0-1.1-.8-1-2.1-1.5-3.4-1.5-1.1,0-2.2.2-3,.9Z"/>
    <path class="st0" d="M173.2,33.8c.3.9,1.2,1.9,2.2,1.6.9-.4.8-1.7.3-2.4-.4-.8-1.5-1.3-2.2-.8-.4.4-.5,1-.3,1.6Z"/>
  </g>
  <g>
    <path class="st0" d="M188.7,41.1c.1-.9-.8-1.5-1.6-1.6-.8-.2-1.9.5-1.5,1.3.5,1.1,2.5,1.4,3,.2Z"/>
    <path class="st0" d="M188,37.4c-.3-1.1-1.5-1.9-2.6-1.6-.6.2-.9.9-.6,1.4.4,1,1.6,1.7,2.6,1.3.5-.2.7-.7.6-1.2Z"/>
    <path class="st0" d="M187.5,32.8c-.6.2-.7.9-.5,1.4.3.8,1.2,1.4,2.1,1.4.5,0,1.1-.4,1.1-.9,0-1.2-1.4-2.3-2.6-1.9Z"/>
    <path class="st0" d="M189.4,36.9c-.6.7-.6,1.7-.4,2.5.2,1.2,1,2.6,2.2,3,.4.2.7,0,.8-.4.4-.9.5-1.9,1.2-2.6.5-.6,1.2-1,1.7-1.5.3-.2.3-.7,0-1-.8-.8-1.9-1.1-3-1-.9,0-1.9.3-2.5,1Z"/>
    <path class="st0" d="M190.8,33.9c.3.8,1.1,1.5,2,1.3.8-.4.6-1.5.1-2.1-.4-.6-1.3-1-1.9-.5-.3.4-.3.9-.2,1.4Z"/>
  </g>
  <path class="st0" d="M149.6,92.1c.3-.2.5-.4.7-.5l1-.8c.7-.5,1.5-1,2.3-1.4.3-.2.5-.4.8-.6,0-.1.3,0,.4-.2.3,0,.4-.2.6-.3q0-.1.3,0c0,.1.1,0,.1,0s0-.1.1,0c.1,0,0-.1,0-.1q.2,0,.4,0s.1,0,.2-.1c0,0,.1,0,.1,0h.1c.2-.2.4-.2.6-.3.1,0,.2,0,.3,0q.1,0,0-.1h.2s.3,0,.3,0c0,0,0-.1.1,0h.3c.1,0,.1,0,.2,0s.1,0,.2-.1c.3-.2.6-.3,1-.4s.2,0,.4-.2c0-.1.2-.1.4-.2h.6c.3-.3.7-.4,1.1-.7s.4-.3.5-.4c.1,0,.2,0,.3,0,.1,0,.2,0,.2.2.1.2.3.4.4.5s.2.2.5.1c.2-.1.3-.2.5-.2h.1c.4,0,.8-.4,1.2-.5.2-.1.4-.2.5-.2.2-.1.4-.2.5-.2.2,0,.4-.2.5-.2h.5c0,0,.2-.1.2-.1.1,0,.2,0,.3,0,.2,0,.6.2.8.2,0,.1.1,0,.1,0,.1.2.2.2.4,0h.3c.2,0,.4-.2.5-.3,0-.1,0-.2.2-.4v-.2c-.3-.2-.4-.3-.6-.2-.3,0-.7-.2-.9-.3-.2,0-.5-.1-.7-.1s-.2,0-.2,0c-.4-.2-.7-.1-1-.2-.2,0-.4.2-.6.2-.5.2-.9.3-1.5.2h-.1s0,0,0,0c.2-.1.3-.3.5-.3q0-.1.2-.1c0-.1.3-.2.4-.2.2,0,.3-.2.5-.2.3,0,.8,0,1.1.3.1,0,.2,0,.3,0,.3,0,.5,0,.8,0,.1,0,.2,0,.3-.2.2-.1.3-.4.3-.6,0-.1,0-.2-.2-.3-.2,0-.5-.1-.7-.1s-.3,0-.5,0c-.6-.1-1-.2-1.6-.4-.6-.1-1,0-1.5.2h0q-.1,0,0,0v-.4q-.2,0-.1-.2c0-.2,0-.3.1-.6,0-.1.2-.2.2-.4.1,0,.2-.1.3,0,.1,0,.2-.1.3-.3.2-.1.3-.2.5-.2.2,0,.3,0,.5.1.4.2.6.1.9,0,.1,0,.2,0,.2-.2h0c.1,0,.2-.2,0-.2,0-.1,0-.2-.1-.2-.1,0-.2-.2-.5-.2-.1,0-.2,0-.2-.2h.3c.3-.1.6-.2,1-.3.1,0,0-.1.2-.2s.2-.2.2-.5,0-.3-.3-.4c-.4,0-1-.2-1.5-.3-.1,0-.1,0-.1-.2s-.1,0-.1,0l-.4-.3c-.3-.3-.5-.5-.9-.4-.1,0-.2,0-.4-.3,0,0-.1,0-.2,0s-.1,0-.2,0v-.2c-.2-.2-.3-.5-.6-.7,0-.1-.1-.2-.2-.3-.1,0-.1-.2-.2-.2h-.2c-.2.3-.2.5-.3.8,0,.2,0,.4.1.6s.2.3,0,.4c0,.1,0,.2-.2.2,0,.1,0,.1,0,.2,0,.2,0,.3-.1.5-.1,0-.2.1-.3.2-.3.3-.5.4-.6.8-.3.3-.5.6-.7.9,0,.1,0,.1-.2.1,0,.1-.2.2-.2.4,0,0,0,.1,0,.1-.2.1-.3.4-.6.5,0,.1,0,.1,0,.1l-.4.4c-.2,0-.4.2-.6.3-.4.3-.7.6-.9.9-.2.2-.5.5-.9.6,0,0,0,.1-.2.1h0c-.6.3-1,.6-1.5.8q0,.1-.2.1c-.2.1-.5.4-.7.3h-.1s-.4,0-.4,0c-.2,0-.3,0-.5.2h-.3c-.1,0-.3.1-.4.1h-.2c-.1,0-.2,0-.3,0,0,0-.1,0-.2,0,0-.1-.1,0-.2-.2,0-.1-.1-.2-.2-.2-.1,0-.4-.2-.5-.4l-.4-.4q-.1,0-.1-.2c0-.1,0-.2-.2-.3-.3-.4-.6-.9-.9-1.3h0c0-.3-.2-.4-.4-.5s-.3,0-.3.3v.2c-.2.6-.1,1,.2,1.5v.2c0,.2.1.4.2.5s.2.2.3.3c.2.3.4.4.5.7.2,0,.3.3.4.4.1,0,.1,0,.1,0,.1,0,.2.2.3.3.1,0,.1.2.2.3.1.2.2.3,0,.3-.3.2-.5.4-.7.6l-.4.7c0,.3-.2.6-.4.8q0,.1,0,.1t-.2,0c0,.1,0,.2-.2.2q0,.1,0,.2h0c-.1,0-.1.1,0,.2s0,.1,0,.1h-.1c0,.1,0,.2-.2.4h-.1c0,.1,0,.2,0,.2,0,.1,0,.1,0,.1,0,.1-.2.2-.3.3-.3.3-.6.4-.9.5l-.3.3-.3.4-1.2,1.5c0,.1,0,.1-.3.3-.1,0-.2.1-.2.2q0,.1-.2.1c-.2.1-.4.4-.3.6v.4c0,.1.2,0,.1.3h.1c.2,0,.4,0,.5-.2.2-.1.4-.3.5-.4.3-.3.5-.5.6-.8.2-.5.6-.9,1-1.1h.2s0,0,0,0c-.2.1-.3.4-.4.5,0,.1,0,.2-.2.2-.3.3-.4.6-.5,1.1,0,.2.2.4.3.5.2,0,.5,0,.7-.3l.5-.9c.2-.5.5-.8.9-1.2Z"/>
  <path class="st1" d="M236.6,23.3l8.8-17.2c.3-.7,1.2-1.1,2.1-1.1h13.8c1.6,0,2.7,1.2,2.1,2.4l-8.8,17.2c-.3.7-1.2,1.1-2.1,1.1h-13.8c-1.6,0-2.7-1.2-2.1-2.4Z"/>
  <path class="st2" d="M239.4,21.6l8.8-17.2c.3-.7,1.2-1.1,2.1-1.1h13.8c1.6,0,2.7,1.2,2.1,2.4l-8.8,17.2c-.3.7-1.2,1.1-2.1,1.1h-13.8c-1.6,0-2.7-1.2-2.1-2.4Z"/>
</svg>