<?xml version="1.0" encoding="UTF-8"?>
<svg id="Layer_1" xmlns="http://www.w3.org/2000/svg" xmlns:xlink="http://www.w3.org/1999/xlink" version="1.1" viewBox="0 0 375.6 371.9">
  <!-- Generator: Adobe Illustrator 29.5.1, SVG Export Plug-In . SVG Version: 2.1.0 Build 141)  -->
  <defs>
    <style>
      .st0 {
        fill: none;
      }

      .st1 {
        fill: #c86221;
      }

      .st2 {
        fill: #edb332;
      }

      .st3 {
        fill: #ce9d21;
      }

      .st4 {
        fill: #318c38;
      }

      .st5 {
        fill: url(#linear-gradient);
      }

      .st6 {
        fill: #aa511a;
      }

      .st7 {
        fill: #fff;
      }

      .st8 {
        fill: #fcdbb9;
      }

      .st9 {
        fill: #2d7f33;
      }

      .st10 {
        fill: #c21008;
      }

      .st11 {
        fill: #d29361;
      }

      .st12 {
        fill: #feead3;
      }

      .st13 {
        fill: #fa9e4e;
      }

      .st14 {
        fill: #e2b433;
      }

      .st15 {
        fill: #1d771d;
      }

      .st16 {
        fill: #f9b51c;
      }

      .st17 {
        display: none;
      }

      .st18 {
        fill: #53ad5c;
      }

      .st19 {
        clip-path: url(#clippath);
      }

      .st20 {
        fill: #d77429;
      }
    </style>
    <clipPath id="clippath">
      <circle class="st0" cx="187" cy="185.9" r="165.6"/>
    </clipPath>
    <linearGradient id="linear-gradient" x1="-77.2" y1="123.3" x2="-73.5" y2="48.4" gradientTransform="translate(0 374) scale(1 -1)" gradientUnits="userSpaceOnUse">
      <stop offset="0" stop-color="#d67728"/>
      <stop offset="1" stop-color="#c05e22"/>
    </linearGradient>
  </defs>
  <g>
    <circle class="st18" cx="187" cy="185.9" r="165.6"/>
    <path class="st9" d="M187,355.2c-45.2,0-87.8-17.6-119.7-49.6-32-32-49.6-74.5-49.6-119.7s17.6-87.8,49.6-119.7c32-32,74.5-49.6,119.7-49.6s87.8,17.6,119.7,49.6c32,32,49.6,74.5,49.6,119.7s-17.6,87.8-49.6,119.7c-32,32-74.5,49.6-119.7,49.6h0ZM187,24c-43.2,0-83.9,16.8-114.5,47.4-30.6,30.6-47.4,71.2-47.4,114.5s16.8,83.9,47.4,114.5c30.6,30.6,71.2,47.4,114.5,47.4s83.9-16.8,114.5-47.4,47.4-71.2,47.4-114.5-16.8-83.9-47.4-114.5-71.2-47.4-114.5-47.4Z"/>
  </g>
  <g class="st19">
    <g id="Generative_Object">
      <g>
        <g>
          <path class="st10" d="M222.5,250.4h0Z"/>
          <path class="st10" d="M224.4,248.1c-.2-.5-1.2,0-1.4-.2-.3.9-.4,1.8-.5,2.5,0-.7,1.9-2.2,1.8-2.3h0Z"/>
        </g>
        <g>
          <path class="st15" d="M226.2,200.2c-2-1.7-2.7-2.5-4.2-4.6-3.9-6-5.8-12.9-6.5-19.9-.3-2.8-.7-5.5-.5-8.3.1-1.8.7-4.4,1.4-6,.3-.7.6-1.7,1.4-1.9,0,0-.4-1-.7-.9-15.6,4.9-31.3,9.3-47,13.9-.6.3-5.5,5.7-6,6.5-5.2,7.9-5.4,14.4-2.3,22.7,4.5,12.1,9,15,22.4,13.9.8,0,4.4-2.7,6-1.9.9.4,4.8,16.6,5.8,19,0,0,.7,0,1.2.4.5,1,1,2.1,1.5,3.3.6,2.2.9,4.3,2.4,6,1.3,3.9,4.4,11.8,6.3,14.7.2.4-.7,4.2-.5,4.3,3.4.6,16.1-1.5,17.4-4.9.4-1.1-.3-2.5-.5-3.5-.1-.7-1.4-1.6-1.4-2.5s.1-1.6.5-2.6c-2.7-2.1-3.5-3.2-.5-5.8-6.6-.4-3.1-3.8-3.2-5.1-.1-1.1-3.4-2,.5-5.8.1-.1,2-1.2,2.3-1.4,1.3-.7,1.7-1.4,1.9-1.4.4-3.1-2.9-20.7-2.3-22,.6-1.2,5.6-1,6.7-1.6,1.1-.6,1.1-1.8,1.2-1.9-.7-1-2.2-1.9-3.2-2.8h0ZM223.1,254.2c-.2-1-.7-2.3-.6-3.8,0,1.6.4,2.8.6,3.8Z"/>
          <path class="st9" d="M208.4,262.5c-.6,0-1.2,0-1.6-.1h-.2c-.9-.4-.8-1.2-.4-3,.1-.6.3-1.6.3-2-2-3.2-5-10.8-6.2-14.5-1.4-1.7-1.8-3.6-2.3-5.4,0-.3-.1-.5-.2-.8l-.5-1.2c-.3-.6-.5-1.1-.8-1.7-.1,0-.3,0-.4-.1-.3,0-.8-.2-1-.7-.4-1-1.2-4-2.2-7.4-1.1-3.9-2.6-9.7-3.3-11-.8,0-2.6.9-3.4,1.3-.9.5-1.4.7-1.9.7-13.8,1.2-18.9-1.9-23.6-14.6-3.3-9-2.6-15.9,2.4-23.7.5-.7,5.5-6.3,6.4-6.8h.2c3.5-1.1,7-2.1,10.5-3.1,12-3.5,24.4-7.1,36.5-10.8,1.1-.3,1.7.8,1.9,1.3h0c-.2-.2-.6-.5-1.2-.4h0l.6,2.1h0c-.2,0-.4.8-.5,1v.2c-.7,1.4-1.2,3.9-1.4,5.7-.2,2.3,0,4.4.3,6.7,0,.5.1.9.2,1.4.8,7.7,2.9,14.2,6.3,19.4,1.3,2,1.9,2.7,3.9,4.4.3.3.6.5,1,.8.9.7,1.9,1.4,2.5,2.3l.7,1.1-.7.3c-.2.6-.5,1.5-1.6,2-.6.3-1.5.4-3,.6-.9.1-2.6.3-3.2.6,0,1.2.6,6,1.1,9.5.9,6.3,1.5,10.5,1.3,12.1v.8h-.6c-.3.3-.9.8-1.8,1.3-.3.2-1.8,1-2.1,1.3-2,2-1.5,2.6-.9,3.3.4.4.7.8.8,1.5,0,.6-.2,1.1-.4,1.7-.2.5-.5,1.3-.3,1.6,0,.1.5.7,2.9.8l2.8.2-2.1,1.8c-1.4,1.1-1.5,1.7-1.5,1.9,0,.6,1.3,1.6,2,2.1l.6.5-.3.7c-.3.7-.4,1.5-.4,2.2s.4.6.6.9c.3.4.7.9.8,1.4,0,.2.1.5.2.8.3,1,.6,2.2.2,3.3-1.4,3.7-12.2,5.7-17,5.7h0ZM208.2,260.2c1.8,0,4.8-.3,8-1,4.4-1,6.8-2.4,7.1-3.2.2-.4,0-1.1-.2-1.7l-1,.2c0-.2-.1-.5-.2-.8-.2-.9-.5-1.9-.5-3.2v-.2c0-.7.1-1.4.3-2.1-1.3-1.1-2.2-2.1-2.2-3.4s.2-1.3.7-2c-1.2-.3-2-.8-2.4-1.5-.8-1.3-.2-2.7.1-3.6,0-.2.2-.4.2-.6,0,0-.2-.2-.2-.3-1.3-1.4-2.1-3.3,1.1-6.5.3-.3,2.5-1.6,2.6-1.6.7-.4,1.1-.7,1.3-.9,0-1.8-.7-6.9-1.3-11.1-1.1-7.9-1.4-10-1-10.8.6-1.2,2.3-1.4,5-1.8.8,0,1.9-.2,2.2-.4.2-.1.4-.4.4-.6-.4-.4-1-.9-1.6-1.3-.4-.3-.8-.6-1.1-.8h0c-2.2-1.8-2.9-2.7-4.4-4.9-3.6-5.5-5.8-12.4-6.7-20.4,0-.5-.1-.9-.2-1.4-.3-2.3-.5-4.7-.3-7.1.1-1.7.7-4.5,1.5-6.4v-.2c.1-.2.2-.4.3-.6-11.6,3.6-23.3,7-34.8,10.3-3.4,1-6.9,2-10.3,3-.8.7-5.2,5.4-5.6,6.1-4.7,7.2-5.3,13.3-2.2,21.7,4.3,11.7,8.5,14.3,21.3,13.2l1-.5c1.8-.9,4-2,5.6-1.2.8.4,1.3,1.5,4.2,12.4.8,2.8,1.5,5.4,1.9,6.7.3,0,.6.2.9.4l.3.2v.3c.4.7.7,1.3,1.1,2l.6,1.4c0,.3.1.6.2.9.4,1.8.8,3.4,1.9,4.7v.2c.1,0,.2.2.2.2,1.3,4.1,4.4,11.7,6.2,14.4.3.5.3,1.1-.1,3.4v.5h0ZM197.2,232.1h0Z"/>
        </g>
        <g>
          <g>
            <path class="st14" d="M334,217.8c-2.1,0-4.5,2.1-6.7,2.3-.7-.2-2.4-.5-4.4-.9l-14.7-7.1c-23.3-20.6-34.2-71.4-30.7-99.3,3.1-14,10.6-27.5,27.3-23.1-6.4-2.7-11.6-2.6-17.6.9-1.8,1.1-1.6.5-3.2,2.3h0c-6.2,4.5-9.6,13.6-11.1,20.8-.4,2.1-.7,4.4-.9,6.5v.9c-2.7,30.4,6.4,69.9,29.6,89.8,1.9,1.7,3.8,3.7,5.6,5.6,3.2,1.5,12.3,8.4,20.5,5h-.2c2.2-.5,4-1.7,6.5-3.7h0Z"/>
            <path class="st9" d="M323,223.4c-5.6,0-10.9-3-14.1-4.9-.9-.5-1.6-.9-2.2-1.2h-.2l-.2-.3c-1.7-1.8-3.6-3.8-5.5-5.5-24.3-20.8-32.6-61.6-30-90.7v-1c.2-2.2.5-4.5.9-6.6,1-4.6,4-16,11.5-21.4,1.2-1.3,1.5-1.5,2.3-1.9.3,0,.6-.3,1.1-.6,6.1-3.6,11.7-3.9,18.6-1l-.7,2.1c-5.5-1.4-10.2-.9-14.2,1.5-6.9,4.2-10.2,13.6-11.8,20.8-1.8,14.2.2,33.6,5.3,51.9,5.7,20.6,14.6,37,25,46.2l14.4,7c1.3.3,2.5.6,3.3.7.3,0,.5.1.7.1.8-.1,1.7-.6,2.6-1,1.3-.6,2.6-1.3,4-1.3h3.2l-2.5,2c-2.2,1.7-4,2.9-5.9,3.5l-.7.3c-1.7.7-3.4,1-5.1,1l.2.3ZM307.9,215.4c.6.3,1.3.7,2.1,1.2,3.5,2,9,5.2,14.5,4.5l-.4-.2.9-.2c-.7-.1-1.4-.3-2.3-.5h-.2l-14.8-7.3h-.1c-10.8-9.6-19.9-26.4-25.8-47.5-5.2-18.6-7.2-38.4-5.3-52.9h0c2.1-9.6,5.5-16.4,10.3-20.5h-.1c-.6.3-.7.3-1.7,1.4h-.2c-6.8,5.1-9.7,15.9-10.7,20.3-.4,2-.7,4.2-.9,6.4v.9c-2.5,28.6,5.6,68.6,29.2,88.8,1.9,1.7,3.8,3.7,5.5,5.5h0Z"/>
          </g>
          <g>
            <g>
              <g>
                <path class="st3" d="M304.9,89.5c-16.7-4.4-24.2,9.1-27.3,23.1-3.7,29.7,8.8,85.1,35.2,102.7,4.3,2.9,7.9,5.3,13.2,4.8,2.2-.2,4.4-.6,8.1-2.4,28-21.9,2.1-115-29.2-128.2h0ZM334.5,202.7c-2.6,6.5-6.9,10.9-14.3,9.5-9.9-1.9-18.2-14.9-22.7-23.1-1-1.8-5.6-9.8-5.1-11.3,5.3-3.6,10.8-7,16.2-10.4s4.4-.4,5.1-5.6c.6-4.3-2.3-8.9-2.8-12.5-1.5-2.1-3.1-5.7-6-6h-.9c-2.5-.2-11,1.5-14.3,1.9-2.1.2-4.4.3-6.5.9-1.7-12.5-3.6-35,6-44.9,7.7-7.8,16-2.3,22.2,4.2,17.9,18.5,32.8,73.5,23.1,97.4h0Z"/>
                <path class="st9" d="M324.4,221.4c-4.8,0-8.4-2.4-12.1-4.9h-.1c-27-18.2-39.3-74.6-35.7-103.9h0c2.4-11.2,6.7-18.6,12.8-22.4,4.5-2.7,9.8-3.3,15.9-1.7h.2c9.1,3.9,18.3,14.6,26,30.1,7.2,14.5,12.5,32.2,14.7,48.6,3.2,24.5-.9,43.3-11.3,51.4h-.2c-3.7,2-6,2.4-8.5,2.7h-1.7,0ZM278.7,112.9c-1.9,15.1.5,36.3,6.3,55.4,6.6,22,16.7,38.4,28.4,46.3h.1c4.2,2.9,7.5,5.1,12.3,4.6,1.9-.2,4-.4,7.6-2.3,9.7-7.7,13.5-25.6,10.4-49.3-4-30.6-20.2-68.7-39.3-76.9-5.4-1.4-10.2-.9-14.1,1.5-6.9,4.2-10.2,13.6-11.8,20.8h.1ZM322.9,213.6c-.9,0-1.9,0-2.9-.3-9.9-1.9-18.2-13.9-23.5-23.7-.1-.2-.3-.6-.6-1-3.9-7-5.1-9.9-4.6-11.2v-.3c.1,0,.4-.2.4-.2,5.5-3.7,11-7.2,16.2-10.4.9-.5,1.6-.8,2.2-1,1.4-.5,1.9-.7,2.3-3.7.3-2.4-.6-5-1.5-7.6-.5-1.5-1-3-1.3-4.4-.2-.4-.5-.8-.7-1.2-1.2-1.9-2.5-3.9-4.3-4.2h-.9c-1.5-.1-5.7.6-9.1,1.1-2,.3-3.8.6-5,.7-.5,0-.9,0-1.4.1-1.7.2-3.4.3-4.9.8l-1.2.3-.2-1.3c-3.1-22.9-1-38.3,6.3-45.8,2.7-2.8,5.8-4.2,9-4.2,4.6,0,9.4,2.7,14.8,8.4,8.6,9,17.1,27,22.2,47.2,5.3,21.4,5.8,40.1,1.2,51.4h0c-2.8,7-7.1,10.5-12.7,10.5h.2ZM293.5,178.3c.2.9,1.1,3.3,4.4,9.1.3.5.5.8.6,1.1,4.1,7.6,12.4,20.7,21.9,22.6,6,1.1,10.2-1.7,13.1-8.8,9.6-23.7-5.7-78.4-22.9-96.2-4.9-5.1-9.3-7.7-13.2-7.7s-5.1,1.1-7.4,3.5c-6.7,6.9-8.7,21.2-5.9,42.7,1.3-.3,2.7-.4,4.1-.5.5,0,.9,0,1.3-.1,1.1-.1,3-.4,4.9-.7,3.9-.6,7.9-1.3,9.6-1.1h1c2.9.4,4.6,3,5.9,5.2.3.5.6.9.8,1.3l.2.2v.3c.2,1.2.7,2.7,1.2,4.2.9,2.6,2,5.6,1.6,8.6-.5,4.1-1.8,4.8-3.8,5.5-.6.2-1.2.4-1.8.8-5.1,3.2-10.4,6.5-15.7,10.1h0Z"/>
              </g>
              <path class="st16" d="M311.4,105.3c-6.2-6.4-14.6-12-22.2-4.2-9.6,9.9-7.7,32.4-6,44.9,2.1-.6,4.4-.7,6.5-.9,3.3-.4,11.9-2,14.3-1.9h.9c3,.3,4.5,3.9,6,6,.5,3.6,3.4,8.2,2.8,12.5-.7,5.1-2.4,3.8-5.1,5.6-5.4,3.4-10.9,6.8-16.2,10.4-.5,1.5,4.1,9.5,5.1,11.3,4.4,8.3,12.8,21.2,22.7,23.1,7.4,1.4,11.7-3,14.3-9.5,9.7-23.9-5.3-78.9-23.1-97.4h0Z"/>
            </g>
            <g>
              <path class="st9" d="M305.9,143.1c5.5,1.4,10.6,21.1,6.2,22.7s-9.4-11.5-9.5-15.3-.4-6.3,2.4-7.3.6-.1.9,0h0Z"/>
              <path class="st3" d="M306.2,146.3c4-.3,6.9,11.5,5.4,14.7-2.9,6.3-11.5-14.2-5.4-14.7Z"/>
            </g>
          </g>
        </g>
        <g>
          <path class="st16" d="M277.9,170.2c-9.7-34.6-5.7-34.9-5.9-49.2v-.9c-1.1-1.6-.9-.3-1.4.7-11.1,21.5-30.4,31.4-53.5,37.7-.7,1.6-1.9,7-2.1,8.8-.2,2.9.2,5.5.5,8.3.7,7,2.6,13.9,6.5,19.9,1.4,2.2,2.2,3,4.2,4.6,1.1.9,2.6,1.7,3.2,2.8,6.8-3,30.2-2.1,38.6-.9,13.9,2,35.8,12.9,39.1,14.3s-20.8-15.9-29.3-46.2h0Z"/>
          <path class="st9" d="M307.3,217.5c-.2,0-.4,0-.6-.1-.4-.2-1.1-.5-2.1-1-6.8-3.2-24.7-11.6-36.7-13.3-8.1-1.2-31.5-2.1-38,.8l-.9.4-.5-.8c-.4-.6-1.1-1.1-1.9-1.7-.4-.3-.8-.6-1.1-.8-2.2-1.8-2.9-2.7-4.4-4.9-3.6-5.5-5.8-12.4-6.7-20.4,0-.5-.1-.9-.2-1.4-.3-2.3-.5-4.7-.3-7.1.2-1.9,1.5-7.5,2.2-9.1l.2-.5h.5c27-7.5,43.3-19,52.8-37.3,0-.2.2-.4.2-.6.1-.5.4-1.3,1.2-1.4.9,0,1.5.7,1.9,1.2l.2.3v1.2c0,3.5-.1,6.2-.3,8.8-.6,7.6-1.1,14.2,6.2,40.1h0c4.5,16.1,13.9,31,27.8,44.3,1.6,1.5,2,1.9,1.5,2.8,0,0-.4.5-.9.5h-.1ZM248.4,199.8c7.8,0,15.7.5,19.9,1.1,10.6,1.5,25.7,8.1,34,11.9-12.6-12.9-21.1-27.1-25.4-42.3h0c-7.4-26.3-6.9-33.1-6.3-40.9.2-2.1.3-4.3.3-7-12.6,23-34.7,31.8-52.9,36.8-.6,1.9-1.7,6.4-1.8,8-.2,2.3,0,4.4.3,6.7,0,.5.1.9.2,1.4.8,7.7,2.9,14.2,6.3,19.4,1.3,2,1.9,2.7,3.9,4.4.3.3.6.5,1,.8.7.5,1.3,1,1.9,1.5,3.9-1.4,11.1-1.8,18.6-1.8h0Z"/>
        </g>
        <path class="st14" d="M223.9,252.9c-.1-.7-1.5-1.6-1.4-2.5s1.9-2.2,1.9-2.3c-.2-.5-1.2,0-1.4-.2-2.7-2.1-3.5-3.2-.5-5.8-6.6-.4-3.1-3.8-3.2-5.1s-3.4-2,.5-5.8,2-1.2,2.3-1.4c1.3-.7,1.7-1.4,1.9-1.4.3,0,4.3,1.5,4.2,2.5,1.4,1.9.8,8,.9,8.8s2.8,6.9,2.8,7.9c-.1,4.6-4.1,4.5-7.9,5.3h-.1Z"/>
        <path class="st9" d="M223,254.3l-.2-1.1c0-.1-.2-.3-.4-.5-.5-.6-1.1-1.4-1-2.4,0-.5.4-1,.9-1.6-1.6-1.3-2.8-2.3-2.8-3.8s.2-1.3.7-2c-1.2-.3-2-.8-2.4-1.5-.8-1.3-.2-2.7.1-3.6,0-.2.2-.4.2-.6,0,0-.2-.2-.2-.3-1.3-1.4-2.1-3.3,1.1-6.5.3-.3,2.5-1.6,2.6-1.6.8-.4,1.2-.8,1.4-1s.4-.4.8-.5c.9-.2,4,1.4,4.9,2.2.4.4.5.7.6,1,1,1.7,1,4.7.9,7.6v1.3c0,.2.4,1.1.8,2,1.4,3.7,2,5.3,2,6.1-.1,4.8-3.9,5.5-6.9,6-.6.1-1.2.2-1.8.4l-1.1.3h-.2ZM223.6,250.5c0,.2.4.6.5.8,0,.1.2.2.3.4.4,0,.7-.1,1.1-.2,3.3-.6,5-1.1,5.1-3.9,0-.6-1.3-3.7-1.9-5.2-.6-1.5-.8-2.1-.9-2.4v-1.8c0-1.8.1-5.4-.7-6.5l-.3-.4v-.2c-.5-.4-1.9-1.1-2.7-1.4-.3.3-.8.7-1.6,1.1-.3.2-1.8,1-2.1,1.3-2,2-1.5,2.6-.9,3.3.4.4.7.8.8,1.5,0,.6-.2,1.1-.4,1.7-.2.5-.5,1.3-.3,1.6,0,.1.5.7,2.9.8l2.8.2-2.1,1.8c-1.4,1.1-1.5,1.7-1.5,1.9,0,.5,1,1.3,1.7,1.9.5,0,1.7-.1,2,1,.2.7-.2,1.2-.8,1.7-.2.2-.8.8-1,1.1h0ZM223.6,250.6h0ZM223.7,229.5h0Z"/>
      </g>
      <g>
        <path class="st6" d="M56.8,90.5h-3.9c-1.5.5-16.3,20.1-20.4,23.6s-14.5,7.1-12.3,13.4c-2.1-2.1-4.5-6.1-3.2-9s14.4-10.9,16.9-13.2c6.3-5.6,13.2-19,22.9-14.8Z"/>
        <g>
          <path class="st14" d="M164.3,91.1c-1.5-1.1-2.9-1.4-4.7-2-6.3-2.2-13.2-3.5-19.4-6-3.4-3.3-6.9-2.5-11.1-.9-2.5.9-3.8,1.7-5.6,3.7,1.4-.3,6.7,0,8.1.5,1.3.5,13.9,19.2,16.9,22.4,4.7,5.1,13.7,13.4,20.4,15.5,2,.6,3.4,1.5,6,.9.6,0,1.5.2,1.9-.7,1.7-4.2-8.4-30.5-12.4-33.4h0Z"/>
          <path class="st9" d="M173.2,126.5c-1.5,0-2.7-.4-3.8-.8-.3,0-.6-.2-1-.3-6.6-2.1-15.3-9.8-20.8-15.8-1.4-1.6-4.8-6.2-8.4-11.2-3.3-4.6-7.3-10.2-8.2-11-1.3-.4-6.2-.6-7.3-.4l-3.3.7,2.2-2.6c1.9-2.2,3.4-3,6-4,4-1.5,8.2-2.7,12.1,1,3.4,1.4,7,2.4,10.5,3.3,2.9.8,5.8,1.6,8.7,2.6.3,0,.7.2,1,.3,1.4.5,2.7.9,4,1.8,4.1,2.9,14.8,29.7,12.8,34.7-.5,1.3-1.8,1.4-2.3,1.4h-.3c-.7,0-1.3.2-1.8.2h0ZM126.5,84.6c2.1,0,4.5.3,5.5.7.8.3,2.3,2.2,9.1,11.7,3.4,4.7,6.8,9.5,8.2,11,4.3,4.6,13.3,13.1,19.9,15.2.4,0,.7.2,1,.4,1.5.5,2.6.9,4.4.5h1c1.3-3.9-8.3-29.3-12.1-32h0c-1-.8-2.1-1.1-3.4-1.5-.3,0-.7-.2-1-.4-2.7-1-5.7-1.8-8.5-2.5-3.7-1-7.4-2-11-3.5h-.2l-.2-.2c-2.8-2.7-5.6-2.3-9.9-.7-1.2.5-2.1.9-2.9,1.4h0Z"/>
          <g>
            <path class="st4" d="M166.4,124.3c-4-.9-9.5-4.5-14-7.5-5.4-3.7-7-4.4-7.9-4.4s-.9,0-1.4.7c-1,1.2-1.4,3.8-1.4,5.1v.4s-.2-.3-.2-.3c-1-1.3-2-2.6-2.9-3.9l-.4-.5c-3.1-4.1-6-8.1-10.1-11.1h0c0,0-.1-.1-.1-.1-3.9-1.6-11.6-4.2-14.3-4.7h0c-.3-3.1,7.7-11.8,9.9-12.3.3,0,1.2-.1,2.5-.1,2.5,0,4.9.2,5.7.6.7.3,4.2,5.1,8.7,11.4l1.6,2.2c2.9,4.1,5.4,7.5,6.7,8.9,2,2.1,12.4,12.9,20.3,15.5h.3c0,0-.3.1-.3.1-.2,0-.3,0-.5,0-.2,0-.3,0-.5,0h-1.5Z"/>
            <path class="st9" d="M125.9,86.5h0c2.5,0,4.6.2,5.3.5.9.7,4.4,5.6,8.3,11l1.6,2.2c2.9,4.1,5.5,7.6,6.7,9,1.4,1.5,7.2,7.5,13.3,11.8-2.8-1.5-5.7-3.5-8.2-5.1-5.7-3.8-7.3-4.5-8.4-4.5s-1.7.4-2.2,1.1c-.7.9-1.2,2.2-1.4,3.4-.5-.7-1-1.4-1.5-2.1h0s0,0,0,0l-.4-.5c-3.1-4.2-6.1-8.2-10.4-11.3h-.2c0-.1-.2-.2-.2-.2-3.5-1.4-10.3-3.8-13.7-4.6.3-1,1.4-3,3.6-5.6,2.6-3.1,4.9-4.8,5.5-5,.3,0,1-.1,2.3-.1M125.9,84.5c-1.2,0-2.2,0-2.7.2-2.7.6-11,9.7-10.7,13.3v1h.9c2.6.4,10.2,3,14.1,4.6,4.2,3.1,7.1,7.1,10.3,11.4.9,1.3,1.9,2.6,2.9,3.9l2.2,2.9-.2-3.6c0-1.3.4-3.6,1.2-4.5.2-.3.4-.3.6-.3,1,0,4.5,2.3,7.3,4.2,5.6,3.7,12,7.9,16.2,7.9v-.2c.3,0,.7,0,1,0l4.2-.8-4-1.3c-6.6-2.1-15.6-10.6-19.9-15.2-1.4-1.5-4.8-6.3-8.2-11-6.8-9.5-8.3-11.4-9.1-11.7-1.1-.5-3.9-.7-6.1-.7h0Z"/>
          </g>
        </g>
        <g>
          <path class="st8" d="M125.3,349.7c.6,2,1.5,5,.5,6.9-6,.3-4.3-9.1-9-12,1.1,3,4.2,15.1-2.3,12.5s-3.2-11.4-6.5-12.5c.5,4.3,2,8.8-.2,13-2.8,0-5.8.7-8.8.5-.9-1.6-3.6-1.7-4.2-3.9-1.4-5.5,5.9-15.1,12-14.6,2.8,3.5,8.6-.9,12.7,1.4s5.2,7,5.8,8.8h0Z"/>
          <path class="st11" d="M125.8,356.6c-1.5,2.8-14.7,1-18.1.9,2.3-4.1.7-8.6.2-13,3.3,1.1,5,11.9,6.5,12.5,6.5,2.6,3.4-9.5,2.3-12.5,4.8,2.9,3,12.3,9,12h0Z"/>
        </g>
        <g>
          <path class="st1" d="M68.4,321c-.3.5-1.3.7-1.9.9-12.6,4.3-26.6,11.5-37.5,19-1.9-.8-4-1.4-6-1.9,4.1-5.6,10.9-13.7,11.6-20.8l20.8-15c-3.5-6.1-5.4-23.9-3.7-30.1s1.2-.3,1.2-1.6c1.6,6.4,2.9,12.9,4.9,19.2s7,22.1,10.6,30.3Z"/>
          <path class="st6" d="M66.5,321.9c-2.1,6.1-5.6,12.7-10.6,16.9,5.8,1.8,12.2,4.4,13.4,11.3s.3,6.2-3,6.9c-5.5,1.3-22.1,0-28.9,0v-.9c1.1-3.9-1.6-12.5-6-13.4,0-1.6-1.4-1.5-2.3-1.9,10.9-7.5,24.9-14.6,37.5-19h-.1Z"/>
          <path class="st13" d="M2.2,283c2.3.4,4.4,1.4,6.5,2.3,23.2,10.4,30,35.7,9.3,52.8-.3,0-1.2,1-1.9.2,12.5-13.9,18.8-30.9,1.2-43.7-18.8-13.7-34.9-6.5-50.2,8.1,7.7-10.3,21.6-22,35.2-19.7h0Z"/>
          <path class="st6" d="M34.6,315.9v2.3c-.7,7.2-7.5,15.2-11.6,20.8-1.6-.3-3.5-.6-5.1-.9,20.7-17.1,14-42.3-9.3-52.8,14.5,2.5,26.1,15.6,25.9,30.5h.1Z"/>
          <path class="st1" d="M34.6,315.9c.2-14.9-11.5-28-25.9-30.5-2.1-.9-4.2-1.9-6.5-2.3.7-1.4-7.1-1.3-4.4-2.8s15.4,1.1,18.1,1.9c14,4.2,22.8,19.7,18.7,33.8h0Z"/>
          <g class="st17">
            <path class="st8" d="M31.4,342.7c4.5.9,7.2,9.5,6,13.4-3.6,2.9-8.3-12.7-10.4-12,1.6,4.6,2.1,8.5,1.2,13.4-4.5,0-9-.4-13.4-.5-2.9-2.2,2.7-12.1,5.3-13.4s9-1.4,11.3-.9Z"/>
            <path class="st11" d="M37.4,356.1v.9c-3,0-6.2.4-9.3.5,1-4.9.4-8.8-1.2-13.4,2.1-.7,6.9,14.9,10.4,12h0Z"/>
          </g>
          <g>
            <g>
              <path class="st9" d="M136.2,290.4c-4.3,0-8.7-.7-13.1-2.2l-1.5-.5,1-1.2c.8-1,1.7-1.8,2.6-2.6,1.2-1.1,2.4-2.1,3.3-3.7,2-3.3,8.9-20.3,9.6-23.9.9-5,.5-10.6,0-15l2.2-.4.7,2.3c.6-2.1-.3-4.9-1-7.4-.4-1.4-.8-2.8-.9-3.9l-.4-3.8,12.5,15.3c1,.6,2.2,1.4,3.5,2.3,2.4,1.7,5.1,3.5,6.9,4,8.3,2.1,16.9-2.5,24.4-6.5,1.8-1,3.5-1.9,5.2-2.7l2-1-.4,2.2c-.8,4.1-.6,9.1,2.5,10.8.9.5,1.8.5,2.7.6.6,0,1.2,0,1.9.2h0c1.7.4,2.5,1.7,3.2,2.9.7,1.1,1.4,2.2,2.9,2.7l1.9.7-1.6,1.3s-.1,0-.1.1l.2.4-.9.5c-.1,0-.3.1-.5.1-3.4.9-11.9,5.9-18.9,9.8-3.3,1.9-6.1,3.5-8,4.5l-.9.5c-12.6,6.6-26.5,13.8-40.8,13.8l-.2-.2ZM125.4,286.7c17.4,5.2,34.9-3.9,50.5-12l.9-.5c1.9-1,4.7-2.6,7.9-4.4,6.8-3.9,14.5-8.3,18.5-9.7-1.1-.8-1.7-1.8-2.3-2.7-.7-1.1-1.1-1.7-1.9-1.9-.4-.1-.9-.1-1.4-.2-1,0-2.4-.1-3.7-.9-4-2.3-4.2-7.7-3.9-11-1,.5-2.1,1.1-3.2,1.7-7.9,4.2-16.8,9-26,6.7-2.2-.6-5-2.5-7.6-4.3-1.3-.9-2.5-1.7-3.5-2.3h-.2c0-.1-7.1-8.8-7.1-8.8,1,3.6,1.8,7.7-1.1,10.3l-.5.5c.1,3.1,0,6.4-.5,9.5-.7,3.9-7.8,21.2-9.9,24.7-1.1,1.9-2.5,3.1-3.7,4.2-.4.4-.8.8-1.2,1.1h0Z"/>
              <path class="st14" d="M201.2,242.3c1.2,3.7,5,14,7,17.1s0,.5,0,.6c-.7.7-3,.4-3.5.7-3.6-1.2-2.6-5.7-5.2-6.4s-3.1,0-4.9-.9c-3.9-2.2-3.8-8.2-3-12s1.8-5.4,4.8-8.5,1.2-.2,1.7.8c1.3,3,1.2,6.1,3.2,8.6h-.1Z"/>
            </g>
            <g>
              <g>
                <path class="st2" d="M199.4,254.3c-1.4-.4-3.1,0-4.9-.9-3.9-2.2-3.8-8.2-3-12-9.1,4.5-19.6,12-30.3,9.3-3-.8-8-4.8-10.9-6.5l-10.2-12.5c.5,3.9,4.3,10.8.5,14.1l-1.4-4.6c.5,4.9.9,10.4,0,15.3-.7,3.7-7.7,20.9-9.7,24.3-1.8,2.9-4.2,4.2-6,6.5,18.7,6.6,37.5-3.5,53.9-12,6.1-3.2,22.3-13.2,27.2-14.4.4-.1-.8.4.8-.9-3.6-1.2-3.4-4.9-6-5.6h0Z"/>
                <path class="st9" d="M136.2,290.4c-4.3,0-8.7-.7-13.1-2.2l-1.5-.5,1-1.2c.8-1,1.7-1.8,2.6-2.6,1.2-1.1,2.4-2.1,3.3-3.7,2-3.3,8.9-20.3,9.6-23.9.9-5,.5-10.6,0-15l2.2-.4.7,2.3c.6-2.1-.3-4.9-1-7.4-.4-1.4-.8-2.8-.9-3.9l-.4-3.8,12.5,15.3c1,.6,2.2,1.4,3.5,2.3,2.4,1.7,5.1,3.5,6.9,4,8.3,2.1,16.9-2.5,24.4-6.5,1.8-1,3.5-1.9,5.2-2.7l2-1-.4,2.2c-.8,4.1-.6,9.1,2.5,10.8.9.5,1.8.5,2.7.6.6,0,1.2,0,1.9.2h0c1.7.4,2.5,1.7,3.2,2.9.7,1.1,1.4,2.2,2.9,2.7l1.9.7-1.6,1.3s-.1,0-.1.1l.2.4-.9.5c-.1,0-.3.1-.5.1-3.4.9-11.9,5.9-18.9,9.8-3.3,1.9-6.1,3.5-8,4.5l-.9.5c-12.6,6.6-26.5,13.8-40.8,13.8l-.2-.2ZM125.4,286.7c17.4,5.2,34.9-3.9,50.5-12l.9-.5c1.9-1,4.7-2.6,7.9-4.4,6.8-3.9,14.5-8.3,18.5-9.7-1.1-.8-1.7-1.8-2.3-2.7-.7-1.1-1.1-1.7-1.9-1.9-.4-.1-.9-.1-1.4-.2-1,0-2.4-.1-3.7-.9-4-2.3-4.2-7.7-3.9-11-1,.5-2.1,1.1-3.2,1.7-7.9,4.2-16.8,9-26,6.7-2.2-.6-5-2.5-7.6-4.3-1.3-.9-2.5-1.7-3.5-2.3h-.2c0-.1-7.1-8.8-7.1-8.8,1,3.6,1.8,7.7-1.1,10.3l-.5.5c.1,3.1,0,6.4-.5,9.5-.7,3.9-7.8,21.2-9.9,24.7-1.1,1.9-2.5,3.1-3.7,4.2-.4.4-.8.8-1.2,1.1h0Z"/>
              </g>
              <path class="st9" d="M204.8,262l-.6-.2c-2.4-.8-3.2-2.9-3.8-4.4-.5-1.3-.8-1.9-1.4-2.1-.4-.1-.9-.1-1.4-.2-1,0-2.4-.1-3.7-.9-5.1-2.9-4-10.9-3.5-13.2.8-3.8,1.9-5.8,5.1-9,.5-.5,1.4-.4,1.6-.3.9.2,1.5.7,1.9,1.5.5,1.2.8,2.4,1.1,3.6.4,1.8.8,3.4,1.9,4.7v.2c.1,0,.2.2.2.2,1.2,3.7,5,13.9,6.9,16.8.4.6.3,1.4-.2,2-.7.8-1.9.8-3,.9h-.8l-.4.3h0ZM196.8,234c-2.7,2.7-3.5,4.3-4.2,7.6-.8,4.1-.6,9.1,2.5,10.8.9.5,1.8.5,2.7.6.6,0,1.2,0,1.9.2,1.8.5,2.4,2,2.9,3.4.5,1.2.9,2.3,2,2.9.4,0,.8-.1,1.2-.1h1c-2.1-3.7-5.5-13-6.6-16.5-1.3-1.7-1.8-3.6-2.3-5.4-.3-1.1-.5-2.2-1-3.3,0,0,0-.1-.2-.2h.1Z"/>
            </g>
            <g>
              <path class="st5" d="M-78.3,242.7c-.6,1.8-1.2,3.5-1.4,5.3.8.5.9-.9.9-.9,1-.3,0,1.5.9,1.6-5.3,9.1-7.9,20.9-3.2,30.8-.9,1.4-1.8-2.7-2.1-2.5-.7.3,1.6,7.9,2.1,9,5.7,14.1,20.7,25.8,35.6,28.5.3,6.8,2.9,10.8,4.6,17.1-7.8,5.2-17,3.7-25.7,2.8l18.1-3.7-22-1.6c5.6-.3,11.9-.7,16.4-4.4-2.4.6-11.9,3.9-5.6.5-14,3.2-26.9-1.3-35.9-12.3,5,1.3,10.7,4.6,16,2.1-8.8.5-16-5.3-22-10.9l14.1,4.9,10,.7c-11-1.8-23.4-5.5-27.1-17.4,5.3,6.2,13.9,9.8,22,9-15-1.2-27.6-10.4-25.2-26.6,1.3,2.3,2.2,6.6,4.9,7.6-2.3-3.8-4.4-9.4-4.2-13.9s3.5-11.7,4.6-13.4,1.4-1.8,1.4-.5c-3.3,4.4-2,12.8,1.9,16.2-4.3-10.5-2.2-24.5,9.7-28.7-3.5,4.9-5.8,11.5-4.4,17.4,1.6-14.1,8-25.1,22.7-27.8-3.6,3.4-5.7,6.4-7.2,11.1h0Z"/>
              <path class="st6" d="M-58,233.5c-28.2,22.9-17.3,58.4,13,72.2-.4,2.2-.6,6.5-.5,8.8-14.9-2.6-29.9-14.4-35.6-28.5s-2.8-8.7-2.1-9,1.1,3.9,2.1,2.5c-4.7-9.9-2.1-21.7,3.2-30.8,3.7-6.2,12.3-15.4,19.9-15.3h0Z"/>
              <path class="st6" d="M-66.1,326.5s.9.7.5.9l-5.8-.2c.9.1,5.1-.7,5.3-.7h0Z"/>
              <path class="st6" d="M-64.7,326.5l2.1.2c-.7.5-2.2,1.3-2.1-.2Z"/>
              <g>
                <path class="st20" d="M-58,233.5c-7.6-.2-16.2,9-19.9,15.3-1,0,0-1.9-.9-1.6s0,1.4-.9.9c.2-1.9.8-3.6,1.4-5.3,6.5-8.4,13.3-16.8,25.2-13-.4,1.9-3.5,2.6-4.9,3.7h0Z"/>
                <path class="st12" d="M-57.7,230.2c.4,0,1.9-.1,2.1.2-3.1,1.3-6.4,2.3-9.7,3.2-.3-.8,7-3.4,7.6-3.5h0Z"/>
              </g>
            </g>
          </g>
        </g>
        <g>
          <path class="st14" d="M160.6,162.9c-6.5-12.5-24.1-3-34.7-20.6-1.8-3.1-5.9-16-6.5-16.7-2.1-2.1-6,1.2-6.5,3.7-2.3,11.1,5.6,20.3-3.7,32.9-4.1,5.5-34.5,25.4-40.7,26.1,0,3.9,6.5,9.5,9.7,11.6l-22.7-4.4c4.7,3.3,13.2,4,16.2,9.3,3.4,6-1.1,9.5.5,15.3,2.2,8.1,14.7,7.2,17.1,11.6,1.3,2.4.6,7.3,4.2,9.7-.2.4-3.3-2.1-.9,1.4-.9,1.6-2.9.2-3,.2-1.1.4-.2.9-.2.9,5.7,6.3,11.4,4.2,11.6,14.8.2,16.8-1.6,30,0,47.7,1.4-.3,2.5-1.2,3.7-1.9,9-5.4,13.1-10.7,19-18.1,1.9-2.3,4.2-3.6,6-6.5,2-3.4,9.1-20.6,9.7-24.3.9-4.9.5-10.3,0-15.3l1.4,4.6c3.8-3.3,0-10.2-.5-14.1-.4-3.4,1.5,1,2.8,1.2,0-3.7-1.1-6.2-2.3-9.5-.5-1.4-1.7-4.7-2.8-5.6-.2-.2-.5-.3-.8-.4.3,0,.6.2.8.4.5-1.7,3-1.7,4.4-2.8,7.3-5.8,2.9-13,3.9-20.1.9-6.2,6.3-6.2,10.2-10.6,5.2-5.9,7.9-13.4,4.2-20.6h0Z"/>
          <path class="st14" d="M100.4,307.5v-.4c-1.1-11-.7-20.1-.4-29.7.2-5.7.4-11.6.3-18,0-6.7-2.5-8.1-5.7-10.1-1.8-1.1-3.8-2.3-5.8-4.5,0,0-.3-.2-.4-.4l-.2-.2h0v-.2c0-.5.6-.7.8-.7s.3,0,.6.1c.8.4,1.6.6,2.1,0-.8-1.2-1-1.7-.7-2.1,0-.2.4-.2.6-.2-1.4-1.6-1.8-3.7-2.2-5.6-.2-1.2-.4-2.3-.9-3.1-.9-1.7-3.6-2.6-6.4-3.5-4.4-1.5-9.3-3.2-10.7-8.1-.7-2.6-.2-4.8.2-6.9.6-2.6,1.2-5.1-.7-8.3-1.8-3.1-5.7-4.6-9.5-6.1-2.3-.9-4.7-1.8-6.6-3.1l-1.4-1,22.7,4.4c-3.4-2.5-8.5-7.3-8.4-10.9v-.3h.3c5.9-.7,36.1-20.1,40.5-26,5.7-7.8,4.8-14.1,3.9-20.7-.5-3.8-1.1-7.8-.3-12,.4-1.9,2.4-4,4.3-4.5,1.1-.3,2.1,0,2.9.6.3.3.9,1.8,2.3,5.8,1.4,4.1,3.2,9.2,4.3,10.9,5.6,9.3,13.4,10.9,20.2,12.3,5.9,1.2,11.5,2.4,14.5,8.3h0c3.4,6.5,1.8,14.2-4.2,21-1.5,1.7-3.1,2.7-4.7,3.7-2.6,1.6-4.8,3-5.3,6.7-.3,2.2-.1,4.5.1,6.7.5,4.7.9,9.6-4.2,13.7-.6.4-1.3.7-2,1-.9.4-1.8.7-2.2,1.4.9.9,1.8,3.1,2.5,5.2l.2.7c1.2,3.2,2.1,5.7,2.2,9.3v.4h-.4c-.7,0-1.3-.9-1.9-1.6-.1-.2-.3-.4-.5-.6v.6c.1,1,.5,2.3.9,3.7,1.1,3.6,2.4,8.2-.6,10.8l-.4.4-.5-1.6c.3,3.7.3,7.8-.4,11.6-.7,3.7-7.7,21.1-9.8,24.4-1.1,1.8-2.4,2.9-3.6,4.1-.9.8-1.7,1.5-2.4,2.5l-.6.7c-5.6,7.1-9.7,12.2-18.5,17.4-.2.1-.5.3-.7.4-1,.6-2,1.2-3.1,1.5h-.4.2ZM89.6,244.5c1.9,2.1,3.8,3.2,5.5,4.2,3.3,2,6,3.6,6.1,10.7,0,6.4,0,12.3-.3,18.1-.3,9.5-.7,18.4.3,29.2.9-.3,1.7-.8,2.5-1.3.2-.2.5-.3.7-.4,8.6-5.2,12.7-10.2,18.3-17.2l.6-.7c.8-1,1.7-1.8,2.5-2.5,1.2-1.1,2.5-2.2,3.5-3.9,2-3.3,9-20.5,9.7-24.2.9-5.1.5-10.8,0-15.2h.7c0-.1,1.2,3.9,1.2,3.9,2-2.3.9-6.2,0-9.6-.4-1.4-.8-2.7-.9-3.8-.1-.9,0-1.5.3-1.6.5-.2.8.3,1.4,1,.3.3.7.8,1,1.1-.2-3.2-1.1-5.5-2.2-8.4l-.2-.7c-.5-1.4-1.6-4.3-2.5-5h0c-.2-.1-.4-.2-.6-.3h0l.2-.7c.2,0,.4.1.5.2.5-.9,1.5-1.3,2.5-1.7.6-.2,1.3-.5,1.8-.9,4.8-3.8,4.4-8.3,3.9-13-.2-2.2-.4-4.6-.1-6.9.6-4,3.1-5.6,5.7-7.2,1.6-1,3.2-2,4.6-3.6,8-9,6-16.5,4.1-20.2-2.9-5.6-8-6.7-14-7.9-7-1.4-14.9-3.1-20.7-12.7-1.1-1.8-2.9-6.9-4.3-11-.9-2.6-1.8-5.3-2.1-5.6-.5-.5-1.2-.7-2.1-.4-1.6.5-3.4,2.4-3.7,4-.8,4.1-.3,8,.3,11.7.9,6.5,1.9,13.3-4,21.3-3.8,5.2-33.4,24.9-40.6,26.2.3,3.6,6.3,8.9,9.5,10.9l1.6,1.1-22.5-4.4c1.4.7,2.9,1.3,4.6,1.9,3.9,1.5,8,3,9.9,6.4,2,3.5,1.4,6.2.8,8.9-.5,2-.9,4-.3,6.5,1.3,4.6,6,6.2,10.2,7.6,3.1,1.1,5.8,2,6.9,3.9.5.9.7,2,.9,3.3.4,2.2.9,4.8,3.1,6.3l.3.2v.3c-.3.5-.9.2-1.4,0,0,0-.3-.1-.4-.2,0,.2.3.6.7,1.2v.2c0,0,0,.2,0,.2-.9,1.6-2.6.8-3.2.5h-.2,0c0,.1.2.3.2.3h-.4Z"/>
          <path class="st9" d="M99.9,307.7v-1.2c-1.1-11.1-.8-20.1-.4-29.8.2-5.7.4-11.6.3-18,0-6.3-2.2-7.6-5.4-9.5-1.8-1.1-3.8-2.3-5.9-4.6-.2-.2-.3-.3-.4-.5l-1.2-1.3h1.1c.2-.5.6-.8,1.2-1,.5-.2.8,0,1.1.1.3.1.5.2.7.3-.5-.8-.6-1.5,0-2.1h0c-1-1.6-1.4-3.6-1.7-5.2-.2-1.1-.4-2.2-.8-2.8-.8-1.4-3.3-2.3-6-3.2-4.3-1.5-9.7-3.3-11.2-8.6-.8-2.8-.2-5.1.2-7.2.6-2.6,1.1-4.8-.6-7.8-1.6-2.9-5.5-4.4-9.1-5.7-2.4-.9-4.8-1.8-6.7-3.2l-4.3-3,23.2,4.5c-3-2.6-6.5-6.4-6.4-9.6v-1h1c5.6-.8,35.8-20.2,40-25.8,5.6-7.5,4.7-13.7,3.8-20.2-.6-3.9-1.1-7.9-.3-12.2.4-2.1,2.6-4.5,4.8-5.1,1.4-.4,2.7,0,3.6.8s.7,1.2,2.4,6.1c1.4,3.8,3.2,9.1,4.2,10.8,5.4,9.1,12.7,10.6,19.7,12,6.1,1.2,11.8,2.4,15,8.7h0c3.5,6.8,1.9,14.8-4.3,21.8-1.6,1.8-3.3,2.9-4.9,3.9-2.5,1.6-4.5,2.8-5,6.2-.3,2.1,0,4.4.1,6.5.5,4.9,1,10-4.5,14.3-.7.5-1.4.8-2.2,1.1-.7.2-1.2.5-1.5.7.8,1.2,1.6,3,2.3,4.9l.2.7c1.2,3.1,2.2,5.8,2.3,9.6v1.2h-1.2c-.4-.1-.8-.3-1.2-.6.1.5.3,1.1.5,1.7,1.1,3.9,2.5,8.6-.8,11.5l-.5.5c.1,3.1,0,6.4-.5,9.5-.7,3.9-7.8,21.2-9.9,24.7-1.1,1.9-2.5,3.1-3.7,4.2-.8.8-1.6,1.5-2.4,2.4l-.6.7c-5.5,6.9-9.8,12.3-18.7,17.6-.2.1-.5.3-.7.4-1,.6-2.1,1.3-3.4,1.6l-1.2.2h0ZM91.6,244.6c1.4,1.2,2.7,2,4,2.8,3.4,2,6.3,3.8,6.4,11.3,0,6.4,0,12.4-.3,18.1-.3,9.1-.6,17.8.2,28.1.5-.2.9-.5,1.4-.8.2-.2.5-.3.7-.5,8.5-5.1,12.5-10.1,18.1-17l.6-.7c.8-1,1.7-1.8,2.6-2.6,1.2-1.1,2.4-2.1,3.3-3.7,2-3.3,8.9-20.3,9.6-23.9.9-5,.5-10.6,0-15l2.2-.4.7,2.3c.6-2.1-.3-4.9-1-7.4-.4-1.4-.8-2.8-.9-3.9,0-.7-.2-2,.8-2.4.7-.3,1.2,0,1.7.5-.4-2-1-3.8-1.8-5.9l-.3-.7c-.4-1.1-1.5-4.1-2.3-4.7h0s-.2-.1-.4-.2h0l.3-1h-.2c.1-.5.3-.8.6-1.1h0c.7-.7,1.7-1.1,2.5-1.4.6-.2,1.2-.5,1.6-.8,4.5-3.6,4.1-7.6,3.6-12.4-.2-2.3-.4-4.6-.1-7,.6-4.4,3.4-6.1,6-7.8,1.5-.9,3.1-1.9,4.4-3.5,3.3-3.7,8.2-11.2,4-19.3h0c-2.7-5.3-7.7-6.3-13.5-7.5-7.1-1.5-15.2-3.1-21.2-13-1.1-1.9-2.9-6.8-4.4-11.2-.8-2.2-1.7-4.8-2-5.3-.2-.2-.6-.4-1.3-.2-1.4.4-2.9,2.1-3.2,3.4-.8,3.9-.3,7.6.3,11.5,1,6.7,1.9,13.6-4.2,21.8-4,5.3-31.9,23.9-40.4,26.4.8,3.2,6,7.8,9.1,9.8l4.9,3.2-18.8-3.6c3.2,1.3,6.1,2.9,7.7,5.7,2.1,3.8,1.4,6.8.8,9.4-.5,2-.9,3.9-.3,6.1,1.2,4.2,5.5,5.7,9.8,7.1,3.1,1.1,6.1,2.1,7.3,4.2.5,1,.8,2.2,1,3.5.4,2.2.9,4.5,2.8,5.8l.8.5-.4.8c-.2.4-.5.6-.8.7v.2c0,0-.2.6-.2.6-.4.6-.9,1.2-1.9,1.3v-.2Z"/>
          <g>
            <path class="st9" d="M144.7,181.6c.4-.8.9,0,.9,0,2.5,3-.8,7-.9,8.6-1,10.3,3.9,21.9-11.8,22.4-10.6.4-18.7-8.4-23.4-16.9s-4.3-12.7-8.8-17.6c3.1-.7,3.4,3.7,4.2,4.6,8.3,10.1,22.7,17.8,34.9,9,5.7-4.1,3.1-6.6,4.9-10.2h0Z"/>
            <g>
              <path class="st14" d="M124.2,198.8c5.5-.3,15.1,1.2,17.4,7.2-6.1,7.5-21.1,3.5-24.5-5.1.2-.9,6.2-2,7.2-2.1h0Z"/>
              <path class="st9" d="M132.3,211.1c-.9,0-1.8,0-2.8-.2-6.2-.9-11.7-4.8-13.6-9.6v-.3c0,0,0-.3,0-.3.5-2.1,8.1-2.9,8.2-2.9h0c3.4-.2,7.2.3,10.3,1.3,4.2,1.4,7.1,3.6,8.2,6.6l.2.6-.4.5c-2.3,2.9-5.9,4.4-10.1,4.4h0ZM118.4,201.2c1.9,3.7,6.4,6.6,11.5,7.4,4.3.6,8-.4,10.4-2.9-2.4-4.8-11-6.1-16-5.9h0c-.9,0-4.4.8-5.8,1.3h0Z"/>
            </g>
          </g>
        </g>
        <path class="st9" d="M144.7,181.6c.4-.8.9,0,.9,0,0,0,6.5-3.2,8.4-4.7,3.7-2.8,7.1-9.1,5-13.6-5.8-12.4-45.9-.4-22.8,13.4l8.5,4.9h0Z"/>
        <g>
          <g>
            <path class="st4" d="M147.1,143.9c-2.2-6.1-1.8-13.7-2.8-20.1-5.2-6.7-9.1-15.1-16.4-19.9-12.3-8-31.3-4.4-45.4-4.6-1.7,0-6.3-.3-7.6-1.4-1.9,0-2.7,0-4.6-.5-1-.2-1.5-.5-2.3-.9-1.6-.7-3.6-2.7-5.6-3.7l1.9,2.1-6,24.5-1.9-2.1c-.2,4.6.8,9.7.5,14.6-.4,4.8-3.4,17.9-9.7,18.3-1.1,0-3.3-1-4.4-1.4,0,0-.8,1-.9.9-.5-.2.2-.9-.7-1.4-2,5.5-4.2,11-5.6,16.7-2.8,12.2-2.9,24.8-5.1,37-8.3,45.4-67.3,55.2-75.4,103.7-.4,2.2-.6,6.5-.5,8.8.3,6.8,2.9,10.8,4.6,17.1,2.9,5.3,11.4,13.9,13.9,19,1.3,2.6-.8,5.5,3.5,6.5,7,1.6,29.4,0,38.2,0-2.9-2.2,2.7-12.1,5.3-13.4,2.1-1.1,9-1.4,11.3-.9,0-1.6-1.4-1.5-2.3-1.9-1.9-.8-4-1.4-6-1.9-1.6-.3-3.5-.6-5.1-.9-.3,0-1.2,1-1.9.2,12.5-13.9,18.8-30.9,1.2-43.7-18.8-13.7-34.9-6.5-50.2,8.1,7.7-10.3,21.6-22,35.2-19.7.7-1.4-7.1-1.3-4.4-2.8,1.7-.9,15.4,1.1,18.1,1.9,14,4.2,22.8,19.7,18.7,33.8v2.3l20.8-15c-3.5-6.1-5.4-23.9-3.7-30.1,0-.2,1.2-.3,1.2-1.6,1.6,6.4,2.9,12.9,4.9,19.2,2.7,8.8,7,22.1,10.6,30.3,3.3,7.4,11.1,21.5,15.7,28.2,1.8,2.7,3.9,5.2,5.8,7.9,2.9.5,6.1.7,9,.9-.9-1.6-3.6-1.7-4.2-3.9-1.4-5.5,5.9-15.1,12-14.6-3.3-4-5.5-26.5-6-32.4-1.6-17.7.2-30.8,0-47.7-.2-10.6-5.9-8.5-11.6-14.8,0,0-.9-.5.2-.9,0,0,2.1,1.3,3-.2-2.4-3.5.7-1,.9-1.4-3.5-2.5-2.9-7.3-4.2-9.7-2.4-4.4-14.9-3.5-17.1-11.6-1.6-5.8,2.9-9.2-.5-15.3-3-5.3-11.5-5.9-16.2-9.3l22.7,4.4c-3.2-2-9.8-7.7-9.7-11.6,6.2-.7,36.6-20.6,40.7-26.1,9.3-12.5,1.4-21.7,3.7-32.9.5-2.5,4.4-5.8,6.5-3.7.6.6,4.6,13.6,6.5,16.7,10.6,17.6,28.3,8.1,34.7,20.6-1.6-8-10.9-12.4-13.4-19.7h0Z"/>
            <path class="st9" d="M100.9,359.2h-2c-3-.3-6.1-.6-9.1-1.1h-.5l-.3-.4c-.8-1.1-1.6-2.2-2.4-3.2-1.1-1.5-2.3-3.1-3.4-4.7-4.7-6.8-12.5-20.8-15.8-28.4-2.8-6.3-6.4-16.6-10.7-30.4-1.3-4.1-2.3-8.4-3.3-12.6-.3-1.2-.6-2.5-.9-3.8-1.1,6.8.7,22.4,3.9,27.9l.5.9-23.7,17.1.2-2.5v-2.2h0v-.3c3.8-13.3-4.6-28.4-18-32.4-2.1-.6-9.1-1.7-13.6-2,.6.2,1,.5,1.2,1,.2.4.2.9,0,1.3l-.4.8h-.8c-7.7-1.5-15.7,2-22.5,7.2,3.8-2.2,7.4-3.7,11-4.6,9.2-2.1,18.2,0,27.3,6.7,6.8,4.9,10.5,10.8,11.2,17.4,1,9.7-4.8,19.2-10.5,26,.4,0,.9.2,1.3.2,1.1.2,2.2.4,3.3.6,2,.4,4.2,1.1,6.2,1.9.2,0,.4.1.6.2.8.2,2.5.6,2.5,2.8v1.3l-1.3-.3c-2.3-.5-8.9,0-10.6.8-1.6.8-5.2,6.6-5.5,9.9,0,.5,0,1.3.4,1.6l2.7,2h-3.4c-2.7,0-6.9.1-11.3.3-10.4.4-22.1.8-27.1-.3-3.6-.8-3.7-3.1-3.8-4.8,0-.8,0-1.6-.4-2.3-1.3-2.5-4.2-6.1-7-9.6-2.7-3.3-5.4-6.7-6.9-9.3v-.2c-.7-2.1-1.4-4-2-5.8-1.3-3.5-2.5-6.9-2.7-11.6,0-2.3,0-6.6.5-9,4.2-25.2,21.9-40.1,39.1-54.5,16.7-14,32.4-27.3,36.4-49.2,1-5.3,1.5-10.9,2.1-16.2.7-6.9,1.4-14,3-20.9,1-4.4,2.6-8.7,4.2-12.9.5-1.3,1-2.6,1.4-3.9l.4-1.2,1.2.6c.2.1.4.3.6.4.2-.1.5-.2.8,0,.4.1.9.3,1.4.5.8.3,2.1.9,2.6.8,5.3-.3,8.3-12.3,8.7-17.2.2-2.5,0-5.1-.2-7.6-.2-2.3-.4-4.7-.3-6.9v-2.7c0,0,2.4,2.5,2.4,2.5l5.4-21.9-5.2-5.8,5.1,2.5c1.1.5,2.2,1.3,3.2,2.1.9.7,1.7,1.3,2.3,1.6l.5.2c.6.3,1,.5,1.6.6,1.5.4,2.2.4,3.5.4h1.2l.3.3c.7.6,3.7,1.1,6.9,1.1s7,0,10.8-.3c12-.6,25.6-1.2,35.2,5.1,5.4,3.5,8.9,8.8,12.4,14,1.4,2.1,2.8,4.2,4.3,6.2l.2.2v.3c.4,2.3.6,4.8.8,7.2.3,4.4.7,8.9,2,12.8h0c1.1,3.1,3.5,5.7,6.1,8.4,3.2,3.3,6.4,6.8,7.3,11.4l1.6,7.8-3.7-7.1c-2.7-5.3-7.7-6.3-13.5-7.5-7.1-1.5-15.2-3.1-21.2-13-1.1-1.9-2.9-6.8-4.4-11.2-.8-2.2-1.7-4.8-2-5.3-.2-.2-.6-.4-1.3-.2-1.4.4-2.9,2.1-3.2,3.4-.8,3.9-.3,7.6.3,11.5,1,6.7,1.9,13.6-4.2,21.8-4,5.3-31.9,23.9-40.4,26.4.8,3.2,6,7.8,9.1,9.8l4.9,3.2-18.8-3.6c3.2,1.3,6.1,2.9,7.7,5.7,2.1,3.8,1.4,6.8.8,9.4-.5,2-.9,3.9-.3,6.1,1.2,4.2,5.5,5.7,9.8,7.1,3.1,1.1,6.1,2.1,7.3,4.2.5,1,.8,2.2,1,3.5.4,2.2.9,4.5,2.8,5.8l.8.5-.4.8c-.2.4-.5.6-.8.7v.2c0,0-.2.6-.2.6-.4.6-.9,1.2-1.9,1.3,1.4,1.2,2.7,2,4,2.8,3.4,2,6.3,3.8,6.4,11.3,0,6.4,0,12.4-.3,18.1-.3,9.6-.7,18.6.3,29.5,1.6,17.2,3.8,29.4,5.8,31.8l1.7,2.1-2.7-.2c-2.3-.2-5.1,1.3-7.4,4.1-2.6,3.1-4,6.7-3.4,9.1s.8,1.1,1.8,1.7c.8.5,1.7,1,2.3,2l1,1.8h0ZM-39.8,331.2c1.4,2.4,4,5.7,6.6,8.9,2.9,3.6,5.9,7.3,7.2,10,.6,1.1.6,2.3.7,3.2,0,1.6.1,2.2,2.1,2.7,4.7,1.1,16.8.6,26.5.3,3.7-.1,7-.3,9.6-.3,0-.4-.1-1,0-1.6.4-4.1,4.3-10.5,6.7-11.7,1.5-.8,4.9-1.2,7.8-1.2-1.5-.5-3-1-4.5-1.3-1-.2-2.1-.4-3.2-.6-.5,0-1-.2-1.5-.3-1.1.7-2.1.6-2.8-.2l-.7-.7.7-.7c5.9-6.5,12.7-16.4,11.6-26.2-.6-6-4.1-11.3-10.3-15.8-15.9-11.5-30.9-9.1-48.8,8l-1.7-1.5c6.9-9.2,18.5-19.2,30.3-20.3-.2-.2-.3-.4-.3-.7,0-.7.3-1.3,1.1-1.7,2.4-1.3,16.9,1.2,18.9,1.8,14.7,4.4,23.6,20.4,19.6,35l18.3-13.2c-3.4-7.1-5-24.1-3.3-30,0-.5.6-.7.8-.8q.3-.2.3-.4l2.2-.3c.6,2.2,1.1,4.5,1.6,6.8,1,4.1,2,8.4,3.2,12.4,4.3,13.8,7.8,23.9,10.6,30.2,3.2,7.3,11.1,21.5,15.6,28,1.1,1.5,2.2,3.1,3.3,4.6.7,1,1.5,1.9,2.2,2.9,1.5.2,3.1.4,4.6.5-.7-.5-1.3-1.2-1.5-2.3-.8-3.1.8-7.5,3.9-11.1,2.3-2.7,4.9-4.3,7.4-4.8-2.6-6-4.4-21.8-5.3-31.3-1-11.1-.7-20.1-.3-29.8.2-5.7.4-11.6.3-18,0-6.3-2.2-7.6-5.4-9.5-1.8-1.1-3.8-2.3-5.9-4.6-.2-.2-.3-.3-.4-.5l-1.2-1.3h1.1c.2-.5.6-.8,1.2-1,.5-.2.8,0,1.1.1.3.1.5.2.7.3-.5-.8-.6-1.5,0-2.1h0c-1-1.6-1.4-3.6-1.7-5.2-.2-1.1-.4-2.2-.8-2.8-.8-1.4-3.3-2.3-6-3.2-4.3-1.5-9.7-3.3-11.2-8.6-.8-2.8-.2-5.1.2-7.2.6-2.6,1.1-4.8-.6-7.8-1.6-2.9-5.5-4.4-9.1-5.7-2.4-.9-4.8-1.8-6.7-3.2l-4.3-3,23.2,4.5c-3-2.6-6.5-6.4-6.4-9.6v-1h1c5.6-.8,35.8-20.2,40-25.8,5.6-7.5,4.7-13.7,3.8-20.2-.6-3.9-1.1-7.9-.3-12.2.4-2.1,2.6-4.5,4.8-5.1,1.4-.4,2.7,0,3.6.8s.7,1.2,2.4,6.1c1.4,3.8,3.2,9.1,4.2,10.8,5.4,9.1,12.7,10.6,19.7,12s6.9,1.4,9.7,3.1c-1.1-1.3-2.3-2.6-3.6-4-2.6-2.8-5.4-5.7-6.6-9.2h0c-1.5-4.1-1.8-8.8-2.1-13.4-.2-2.4-.3-4.6-.6-6.7-1.5-1.9-2.9-4-4.3-6.1-3.3-5-6.7-10.1-11.7-13.3-9-5.9-22.2-5.3-33.9-4.7-3.8.2-7.5.4-10.9.3-1.8,0-6.1-.2-8-1.4h-.5c-1.4,0-2.3,0-4.1-.5-.9-.2-1.4-.5-2-.8l-.5-.2c-.8-.4-1.5-.9-2.4-1.5l-6.3,25.7-1.3-1.5c0,1.2,0,2.5.2,3.7.2,2.6.4,5.3.2,8-.3,3.7-3.1,18.8-10.8,19.3-1,0-2.4-.5-3.6-1-.2,0-.4-.2-.6-.2-.4.5-.9.9-1.6.7-.2.6-.5,1.2-.7,1.8-1.5,4.1-3.1,8.4-4.1,12.6-1.6,6.7-2.3,13.8-3,20.6-.5,5.4-1.1,11-2.1,16.4-4.1,22.6-20.9,36.8-37.1,50.5-16.8,14.2-34.2,28.8-38.3,53.2-.4,2.2-.5,6.4-.4,8.6.2,4.3,1.4,7.5,2.6,10.9.7,1.8,1.4,3.7,1.9,5.9v-.3ZM118.4,127h0Z"/>
          </g>
          <path class="st9" d="M89.4,124.3c2.5-.5,9.2-.3,7.2,3.5s-13.9,7.2-15,6.7c-3.9-1.5,5.2-9.7,7.9-10.2h0Z"/>
          <path class="st9" d="M129.2,118.2c3.7-1.1,12.8,4.1,11.8,6.7s-19.2-4.5-11.8-6.7Z"/>
          <g>
            <path class="st7" d="M88.2,163.9c-3.5,0-7-5.5-7.6-9.2-1.8-11.1,4.2-16.2,9.8-17.1,5.8-1,12.6,2.3,13.9,9.5h0c.3,1.7.7,8.8-1.4,10.9v.6c0,1.3-.3,2.3-.9,2.8l-.2.2h-.3c-2.2,0-4.5.6-6.8,1.2-2.1.5-4.3,1.1-6.4,1.2h0Z"/>
            <path class="st9" d="M83.7,154.6c.6,3.7,4.5,7.3,8.3,7.2,4,0,7.4-3.5,7.9-7.4,1.7-14.1-18.7-14.5-16.2.2ZM90.6,148.3c.4,3.1-2.5,3.4-4.6,2.3.2-5.9,1.4-2.5,4.6-2.3Z"/>
            <path class="st7" d="M90.6,148.3c.4,3.1-2.5,3.4-4.6,2.3.2-5.9,1.4-2.5,4.6-2.3Z"/>
          </g>
          <g>
            <path class="st7" d="M139.1,152.4c-2,0-3.8-.6-5.5-1.9-2.9-2.3-4.9-6.4-5.3-10.9-1-3-.5-6.6,1.4-9,1.5-1.9,3.7-2.8,6.1-2.5,4.2.4,8.6,5,8.9,14.3.1,4.2-.8,9.3-4,9.8-.6,0-1.1.1-1.7.1h.1Z"/>
            <g>
              <path class="st9" d="M134.3,134c7.5-1.1,8.3,14.8,3.7,16.2-6.5,2-10.4-15.3-3.7-16.2Z"/>
              <path class="st7" d="M137.1,136.8c1.5-.2,2.4,3.1.9,3.7s-2.9-3.5-.9-3.7Z"/>
            </g>
          </g>
        </g>
        <path class="st14" d="M56.6,119.1l6-24.5-1.9-2.1c-1.7-.8-3.7-2.1-5.6-2.3h-3.9c-1.5.5-16.3,20.1-20.4,23.6-3.7,3.2-14.5,7.1-12.3,13.4,1.3,3.7,16.9,18.7,20.8,20.8.9.5.2,1.2.7,1.4,0,0,.8-1,.9-.9,1.1.3,3.3,1.5,4.4,1.4,6.3-.4,9.4-13.4,9.7-18.3.4-4.9-.7-10-.5-14.6l1.9,2.1h.2Z"/>
        <path class="st9" d="M45.4,151c-1,0-2.3-.5-3.5-1-.2,0-.4-.2-.6-.2-.4.5-.9,1-1.6.7-.6-.2-.9-.7-.9-1.5-4.2-2.5-19.9-17.4-21.3-21.4-1.9-5.5,4.3-9.4,8.9-12.1,1.5-.9,2.9-1.8,3.7-2.5,2-1.7,7-7.9,11.5-13.3,6.9-8.5,8.4-10.2,9.3-10.5.5-.2,4.4,0,4.4,0,1.7.2,3.3,1.1,4.7,1.8.4.2.8.4,1.2.6h.2l2.4,2.8-6.7,27.2-1.3-1.5c0,1.2,0,2.5.2,3.7.2,2.6.4,5.3.2,8-.3,3.7-3.1,18.8-10.8,19.3h-.2.2ZM41.1,147.4h.4c.4.1.9.3,1.4.5.8.3,2.1.9,2.6.8,5.3-.3,8.3-12.3,8.7-17.2.2-2.5,0-5.1-.2-7.6-.2-2.3-.4-4.7-.2-6.9v-2.7c0,0,2.4,2.5,2.4,2.5l5.4-21.9-1.3-1.5c-.3-.2-.7-.3-1-.5-1.3-.7-2.7-1.4-4-1.6h-3.4c-1,.9-5,5.8-8.3,9.7-4.7,5.8-9.5,11.7-11.7,13.6-1,.9-2.5,1.8-4,2.7-4.1,2.5-9.3,5.7-7.9,9.5,1.1,3.3,16.3,18,20.3,20.2.2.1.4.3.6.4,0,0,.3-.1.5-.1h-.3Z"/>
      </g>
    </g>
  </g>
</svg>