<?xml version="1.0" encoding="UTF-8"?>
<svg id="Layer_1" xmlns="http://www.w3.org/2000/svg" version="1.1" viewBox="0 0 375.6 371.9">
  <!-- Generator: Adobe Illustrator 29.5.1, SVG Export Plug-In . SVG Version: 2.1.0 Build 141)  -->
  <defs>
    <style>
      .st0 {
        fill: #bf8a04;
      }

      .st1 {
        fill: #fcce5b;
      }

      .st2 {
        fill: #2a8431;
      }

      .st3 {
        fill: #4ea657;
      }
    </style>
  </defs>
  <path class="st2" d="M318.6,150.2c0-73.3-59.6-132.8-132.8-132.8S53,76.9,53,150.2s43.5,115.2,101.9,129.2v78.5l27.5-17.6,27.5,17.6v-77.1c2.5-.5,4.9-1,7.3-1.6l46.2,72.1,13.6-29.7h32.7l-42.6-66.5c31.3-24.3,51.6-62.3,51.6-105h-.1Z"/>
  <path class="st3" d="M300.5,150.2c0-63.3-51.5-114.7-114.7-114.7s-114.7,51.5-114.7,114.7,51.5,114.7,114.7,114.7,114.7-51.5,114.7-114.7Z"/>
  <path class="st1" d="M241.2,176.4c0-26-10.3-45.6-22.7-58.3.1-.2.2-.4.3-.6l1.2-3.8c5.1,4.7,15.6,13.9,27.1,23.1,3.8,3,8.1,4.6,12.3,4.6s3.9-.4,5.7-1.1c4.8-1.9,8.1-6,8.9-11.3.9-5.9-.6-18.1-20.5-33.9-12.3-9.8-23.1-13.1-32.3-9.9-11,3.9-16,15.9-17.8,21.3-6.1-3.4-11.9-5.1-16.7-5.1s-10.6,1.3-17.5,4.4c-1.9-5.7-7-16.9-17.5-20.6-9.2-3.2-20.1,0-32.3,9.9-19.9,15.9-21.4,28.1-20.5,33.9.8,5.3,4,9.4,8.9,11.3,1.8.7,3.8,1.1,5.7,1.1,4.2,0,8.5-1.6,12.3-4.6,11.5-9.2,21.9-18.5,27.1-23.1l.7,2c-13.3,11.2-23.5,30-25,59.3s1.5,28.7,11.1,37.8c14.8,14.1,39.4,15.3,45.5,15.3s1.5,0,1.6,0c.5,0,54.5-1.1,54.5-51.7h0Z"/>
  <path class="st0" d="M161.5,149.2c4,0,6.4,8.2,7,12.1.2,1.4,1.4,2.5,2.9,2.5s.3,0,.4,0c1.6-.2,2.7-1.7,2.5-3.3-.2-1.7-2.7-17.1-12.7-17.1s-12.8,15.3-13,17c-.3,1.6.8,3.1,2.4,3.3,1.6.3,3.1-.8,3.3-2.4.7-4,3.3-12.2,7.3-12.2h0Z"/>
  <path class="st0" d="M194.9,163.7c1.6.3,3.1-.8,3.3-2.4.7-4,3.3-12.2,7.3-12.2s6.4,8.2,7,12.1c.2,1.4,1.4,2.5,2.9,2.5s.3,0,.4,0c1.6-.2,2.7-1.7,2.5-3.3-.2-1.7-2.7-17.1-12.7-17.1s-12.8,15.3-13,17c-.3,1.6.8,3.1,2.4,3.3h0Z"/>
  <path class="st0" d="M219.5,188.6c.1-1.6-1.1-3-2.7-3.1-1.6,0-3,1.1-3.1,2.7,0,.5-.9,11.2-11,11.2s-9.5-5.3-10.3-8.7c6.2-1.8,10.5-5.8,10.5-10.4s-8.1-11.5-18.1-11.5-18.1,5.2-18.1,11.5,6.3,10.3,14.6,11.3c-1,3.3-3.5,7.8-10,7.8-9.8,0-10.9-10.1-11-11.2-.1-1.6-1.5-2.8-3.1-2.7s-2.8,1.5-2.7,3.1c.4,5.7,4.5,16.6,16.8,16.6s14.2-6.8,15.7-12.5c1.5,5.7,5.9,12.5,15.7,12.5s16.4-10.9,16.8-16.6h0Z"/>
</svg>