<?xml version="1.0" encoding="UTF-8"?>
<svg id="Layer_1" xmlns="http://www.w3.org/2000/svg" version="1.1" viewBox="0 0 128 128">
  <!-- Generator: Adobe Illustrator 29.5.1, SVG Export Plug-In . SVG Version: 2.1.0 Build 141)  -->
  <defs>
    <style>
      .st0 {
        fill: none;
      }

      .st1 {
        fill: #fbcd5c;
      }

      .st2 {
        fill: #152816;
      }

      .st3 {
        fill: #4ea555;
        stroke: #fbcd5c;
        stroke-miterlimit: 10;
        stroke-width: 10px;
      }

      .st4 {
        fill: #fff;
      }
    </style>
  </defs>
  <path class="st0" d="M50.4,78.5c-9.9.4-19.5,2.7-28.5,6.9L46.1,19.7c.7-2,1.9-3.2,3.4-3.2h29c1.5,0,2.7,1.2,3.4,3.2l24.2,65.7s-11.6-7-28.5-7l-10.6-32.9c-.4-1.7-1.6-2.8-2.9-2.8s-2.5,1.1-2.9,2.7l-10.8,33.1ZM45.1,86.5c-2,6.6-.6,15.8,4.2,20.2,0-.2.1-.5.2-.7.5-2.7,2.9-4.6,5.7-4.5,2.8,0,4.3,1.5,4.7,4.7.2,1.1.2,2.3.2,3.5v.4c0,2.7.7,5.2,2.2,7.4,1.4,2.2,3.4,3.9,5.7,4.9v-.3l-.2-.3c-1.8-5.6-.5-9.5,4.4-12.8l1.5-1c1.1-.7,2.2-1.4,3.2-2.2,3.8-2.6,6.3-6.8,6.8-11.4.3-2,0-4-.6-6l-.8.6-1.6,1c-7,3.2-14.8,4.2-22.4,2.7-5-.7-9.7-2-13.2-6.2Z"/>
  <path class="st3" d="M111.5,63.8c-2.9-3.1-8.2-5.6-13.1-6.6,2.5-.9,4.7-2.4,6.7-4.3,9.6-9.4,5.5-24.7-4.2-32.5-10.1-8.3-30.4-5.3-40.4,2.9-4.1.2-8.4,1-12.6,2.4-6.3,1.9-12,4-17.1,5.8-7.8,2.9-16.4,6.4-19.7,14.5-4.3,10.5,1.5,20.7,7.7,29.7,5.1,7,10,13.1,16.8,15.7,2.6.8,4.8.8,6.8.3.7.3,1.5.8,2.5,1.3-.9-.3-1.9-.6-2.7-.9,19.9,15,60.6,26.4,72.4-4.2,3.1-8,3.5-17.5-2.8-24.1h0Z"/>
  <path class="st1" d="M75.7,18.9l-37.9,11.3,4.7,59.5s47.3,26.4,62,8.3c14.7-18.1,19-40-12-42,0,0,5.7,3.6,12.5-3.7,6.8-7.4-7.9-38.4-29.3-33.3Z"/>
  <path class="st2" d="M62.3,22.9c9.7-8.6,30.8-12,41.1-3.4,9.7,7.8,13.7,23,4.2,32.5-2.5,2.4-5.4,4.1-8.6,4.9,5.7-10.7,6-17.8-2.3-26.8-7.5-7.7-23.8-6.1-34.2-7.2h0Z"/>
  <path class="st2" d="M88.1,44.9c-.8-21.7-19.7-26.1-37.7-20.1-6.3,1.9-12,4-17.1,5.8-7.8,2.9-16.4,6.4-19.7,14.5-4.3,10.5,1.5,20.7,7.7,29.7,5.1,7,10,13.1,16.8,15.7,19.4,5.8,17.2-28.1,18.1-39.7.9-16.6,2.8.3,3.6,5.4,1.7,10.3,8,9,15.3,5.7,7.6-3.2,13.4-8.1,13.1-16.9,0,0,0-.2,0-.2Z"/>
  <path class="st2" d="M114,62.8c-4.8-5-16.3-8.8-21.5-6.4,14,1.1,26.8,12,20.2,26.7-2.7,5.2-8.1-.8-6.2-5.3,2.8-3.5,9.2-8.6,2.5-12.3-4.5-1-18.4-2.4-14.7,6.2,1.9,3.4,11.9,6.5,5.5,11.8-7.7,6.4-22,4-28.5-3.3,4.5,11.5,22.6,15.4,32,6.5.2.8,3.5,3.4,6.2,2.9-12.3,19.2-47.6,7.5-65,1.4,19.9,15,60.6,26.4,72.4-4.2,3.1-8,3.5-17.5-2.8-24.1h0Z"/>
  <ellipse class="st4" cx="73.8" cy="46.4" rx="6.7" ry="9.7"/>
  <ellipse class="st2" cx="73.8" cy="48.2" rx="6.6" ry="6"/>
  <circle class="st4" cx="75.5" cy="46.2" r="1.3"/>
</svg>